4D 54 68 64 00 00 00 06 
00 01 00 02 00 F0 4D 54 
72 6B 00 00 00 16 00 FF 
58 04 04 02 18 08 00 FF 
51 03 07 A1 20 00 FF 2F 
00 00 00 0C 4D 54 72 6B 
00 00 66 D5 83 60 90 4E 
50 02 B0 40 7F 04 90 4D 
38 01 90 4A 38 00 90 47 
35 33 80 4A 40 00 80 47 
40 15 80 4D 40 64 90 49 
33 05 90 45 31 07 80 4E 
40 0C B0 40 00 08 80 45 
40 06 80 49 40 81 01 90 
4A 32 01 90 47 27 00 90 
44 25 02 90 4E 46 08 B0 
40 7F 2C 80 4A 40 13 80 
47 40 00 80 44 40 64 90 
49 2A 09 90 45 30 00 90 
42 2D 07 80 4E 40 81 14 
90 51 42 0D 80 45 40 00 
80 42 40 0A 80 49 40 81 
0C 90 4A 31 01 90 45 2A 
00 90 3B 27 32 80 4A 40 
04 80 45 40 00 80 3B 40 
0D 80 51 40 01 90 50 3E 
4F 90 4E 3A 05 80 50 40 
02 90 4A 2E 03 90 44 30 
00 90 40 2D 28 80 44 40 
00 80 40 40 08 80 4A 40 
09 80 4E 40 04 90 4C 41 
43 80 4C 40 00 90 4E 3C 
0D 90 45 30 00 90 36 2D 
09 90 49 27 19 80 49 40 
0D 80 45 40 00 80 36 40 
0D 80 4E 40 06 90 50 46 
3F 90 51 3F 0B 80 50 40 
07 90 42 35 00 90 42 35 
00 90 41 2A 00 90 3E 27 
00 90 3B 26 2F 80 41 40 
00 80 3E 40 00 80 3B 40 
0A 90 53 45 25 80 51 40 
27 90 55 3F 0B 90 3D 31 
03 80 53 40 01 90 39 31 
16 80 39 40 03 B0 40 00 
01 80 55 40 07 80 3D 40 
00 80 42 40 72 90 42 2F 
00 90 42 2F 01 90 55 3D 
06 90 3E 1F 00 90 3B 1D 
00 90 38 1C 0A B0 40 7F 
13 80 3E 40 00 80 3B 40 
00 80 38 40 7C 90 3D 2D 
10 90 39 21 00 90 36 1F 
1A 80 39 40 00 80 36 40 
03 80 3D 40 00 80 42 40 
0C 80 55 40 17 90 51 3A 
4E 80 51 40 01 90 4E 35 
09 90 45 1A 35 80 4E 40 
01 B0 40 00 0D 90 49 38 
47 90 4A 30 00 90 3B 24 
00 90 3E 24 00 80 49 40 
29 80 45 40 1A 90 44 20 
3A 80 44 40 15 90 42 22 
3F 80 42 40 15 90 40 1F 
2C 80 40 40 13 90 42 1E 
2D 80 4A 40 00 80 3B 40 
00 80 3E 40 19 90 4C 31 
49 80 42 40 01 80 4C 40 
05 90 4E 2C 02 90 44 1D 
48 90 50 33 12 80 4E 40 
32 80 50 40 0A 90 53 24 
00 90 34 1B 00 90 3E 1B 
4E 90 50 24 03 80 53 40 
3B 80 44 40 09 80 50 40 
04 90 4C 2C 0B 90 44 20 
26 80 4C 40 18 90 47 23 
48 80 47 40 00 80 34 40 
00 80 3E 40 0A 90 49 23 
00 90 39 1A 00 90 3D 1A 
3F 80 44 40 17 90 42 23 
30 80 42 40 11 B0 40 7F 
0D 90 40 24 39 80 40 40 
07 B0 40 00 02 90 3E 20 
37 80 3E 40 0B 90 40 26 
37 80 49 40 00 80 39 40 
00 80 3D 40 1A 90 4A 35 
45 80 4A 40 03 90 4C 36 
04 80 40 40 04 90 42 21 
3F 90 4E 35 1C 80 4C 40 
26 80 4E 40 08 90 51 26 
00 90 32 1C 00 90 3D 1C 
4E 80 51 40 03 90 4E 2D 
46 80 4E 40 06 90 4A 28 
04 80 42 40 07 90 42 1D 
25 80 4A 40 13 90 45 28 
49 80 45 40 00 80 32 40 
00 80 3D 40 05 90 47 25 
00 90 38 1B 00 90 3B 1B 
3B 80 42 40 13 90 40 28 
29 B0 40 7F 0D 80 40 40 
1B 90 3E 1E 33 80 3E 40 
01 90 3D 23 58 80 3D 40 
02 90 3E 30 28 80 47 40 
00 80 38 40 00 80 3B 40 
19 90 44 38 05 80 3E 40 
3F 80 44 40 0A 90 45 40 
0B 90 3E 37 04 90 32 32 
00 90 42 2A 00 90 3D 2A 
25 80 3E 40 03 80 32 40 
00 80 42 40 00 80 3D 40 
14 90 47 47 1D 80 45 40 
08 B0 40 00 24 90 49 42 
06 90 28 39 00 90 44 30 
00 90 3D 30 01 90 34 36 
16 80 47 40 31 90 47 3E 
02 80 49 40 1C B0 40 7F 
32 90 49 42 0B 80 47 40 
11 80 34 40 09 80 28 40 
00 80 44 40 00 80 3D 40 
25 90 4A 44 29 80 49 40 
22 90 4C 41 18 80 4A 40 
2C 90 4A 41 04 90 49 3A 
00 90 45 31 01 80 4C 40 
39 80 49 40 00 80 45 40 
09 90 4C 46 0D 90 47 40 
00 90 44 36 00 90 49 36 
01 80 4A 40 39 90 4E 49 
09 90 45 32 00 90 42 2A 
12 80 47 40 00 80 44 40 
00 80 49 40 16 80 4C 40 
08 80 45 40 00 80 42 40 
19 90 44 36 00 90 40 2D 
06 90 50 47 14 80 4E 40 
16 80 44 40 00 80 40 40 
16 90 50 44 01 B0 40 00 
3A B0 40 7F 14 90 51 48 
0B 90 4A 3B 02 90 3E 39 
00 90 49 30 00 90 4E 30 
07 80 50 40 1B B0 40 00 
07 80 4A 40 06 80 3E 40 
00 80 49 40 00 80 4E 40 
10 90 53 46 2E 80 51 40 
20 90 55 46 04 90 40 3D 
01 90 34 3A 00 90 49 31 
00 90 50 31 1A 80 53 40 
01 B0 40 7F 30 90 53 3C 
07 80 55 40 3C 80 40 40 
05 80 34 40 00 80 49 40 
00 80 50 40 03 90 55 44 
11 80 53 40 36 90 56 44 
26 80 55 40 25 90 58 42 
1E 80 56 40 2A 90 56 40 
01 80 58 40 00 90 55 3D 
00 90 51 33 04 B0 40 00 
3B 80 55 40 00 80 51 40 
01 90 58 45 06 90 53 3C 
00 90 50 33 0D 80 56 40 
2E 90 51 2D 00 90 4E 26 
00 90 55 26 02 90 5A 46 
11 80 53 40 00 80 50 40 
04 B0 40 7F 28 80 58 40 
04 80 51 40 00 80 4E 40 
00 80 55 40 14 90 50 3C 
00 90 4C 33 05 90 5C 49 
13 80 5A 40 17 80 5C 40 
05 80 50 40 00 80 4C 40 
81 00 90 45 4A 00 90 3F 
46 00 90 49 4A 06 90 36 
3E 00 B0 40 00 19 80 45 
40 00 80 3F 40 04 80 49 
40 0B 80 36 40 81 02 90 
38 40 01 90 49 3F 01 90 
44 44 00 90 3F 40 0A B0 
40 7F 33 80 44 40 00 80 
3F 40 04 80 38 40 07 80 
49 40 72 90 2C 42 00 90 
33 42 2D 80 33 40 03 80 
2C 40 15 B0 40 00 61 90 
38 42 01 90 47 40 00 90 
44 43 00 90 3F 3F 3D B0 
40 7F 06 80 38 40 45 80 
44 40 00 80 3F 40 18 80 
47 40 17 90 33 45 04 90 
2C 38 20 B0 40 00 08 80 
2C 40 05 80 33 40 81 00 
90 49 43 01 90 44 43 00 
90 41 3F 81 31 90 2C 40 
02 90 25 3D 24 80 2C 40 
06 80 25 40 7C 90 38 3E 
05 90 31 35 0F 80 44 40 
00 80 41 40 02 B0 40 7F 
0E 80 31 40 04 80 38 40 
07 80 49 40 81 01 90 4E 
4E 03 90 4D 3E 02 90 4A 
35 00 90 47 32 09 B0 40 
00 62 80 4D 40 06 80 4A 
40 00 80 47 40 01 B0 40 
7F 1D B0 40 00 10 90 45 
33 06 90 49 2E 11 80 4E 
40 14 80 45 40 04 80 49 
40 7C 90 4A 37 01 90 47 
2E 00 90 44 2B 01 90 4E 
45 0D B0 40 7F 81 03 80 
4A 40 0B 80 47 40 00 80 
44 40 11 90 49 2E 06 90 
45 35 00 90 42 32 0F 80 
4E 40 0C B0 40 00 81 09 
90 51 47 1D 80 45 40 00 
80 42 40 09 80 49 40 02 
B0 40 7F 7D 90 45 2D 00 
90 3B 2A 00 90 4A 37 32 
80 4A 40 09 80 45 40 00 
80 3B 40 11 90 50 3E 02 
80 51 40 4D 90 4A 2C 03 
90 44 2D 00 90 40 2A 01 
80 50 40 02 90 4E 39 2E 
80 44 40 00 80 40 40 09 
80 4A 40 06 80 4E 40 09 
90 4C 3D 40 80 4C 40 0C 
90 4E 3A 00 90 45 2D 00 
90 36 2A 05 90 49 28 1E 
80 49 40 0B 80 45 40 00 
80 36 40 13 80 4E 40 0A 
90 50 41 42 80 50 40 06 
90 42 36 00 90 42 36 02 
90 41 2B 00 90 3E 28 00 
90 3B 27 02 90 51 3C 2A 
80 41 40 00 80 3E 40 00 
80 3B 40 1F 90 53 40 1C 
80 51 40 32 80 53 40 00 
90 55 38 01 90 3D 33 04 
90 39 2C 14 B0 40 00 04 
80 3D 40 00 80 42 40 0E 
80 55 40 00 80 39 40 71 
90 42 21 00 90 42 21 07 
90 3E 1D 00 90 3B 1B 00 
90 38 1A 05 90 55 2F 1E 
B0 40 7F 09 80 3E 40 00 
80 3B 40 00 80 38 40 7A 
90 3D 1E 04 90 39 2B 00 
90 36 28 20 80 3D 40 00 
80 42 40 04 80 39 40 00 
80 36 40 09 80 55 40 1C 
90 51 2F 49 80 51 40 0C 
90 45 24 01 90 4E 2C 25 
B0 40 00 0B 80 4E 40 15 
90 49 28 44 80 49 40 0B 
90 4A 24 00 90 3B 1B 00 
90 3E 1B 2E 80 45 40 1A 
90 44 22 30 80 44 40 17 
90 42 1F 40 80 42 40 0C 
90 40 20 32 80 40 40 0D 
90 42 29 3F 80 4A 40 00 
80 3B 40 00 80 3E 40 1D 
90 4C 30 34 90 44 1D 03 
80 42 40 0C 80 4C 40 05 
90 4E 32 50 90 50 35 16 
80 4E 40 2F 80 50 40 07 
90 53 26 00 90 34 1C 00 
90 3E 1C 48 90 50 29 05 
80 53 40 46 80 50 40 06 
90 4C 28 01 80 44 40 0D 
90 44 28 23 80 4C 40 1A 
90 47 1F 3B 80 47 40 00 
80 34 40 00 80 3E 40 08 
90 49 24 00 90 39 1B 00 
90 3D 1B 44 80 44 40 16 
90 42 22 35 80 42 40 13 
90 40 22 39 80 40 40 06 
90 3E 20 40 80 3E 40 07 
90 40 32 3F 80 49 40 00 
80 39 40 00 80 3D 40 1E 
90 4A 32 49 90 4C 2F 04 
80 4A 40 00 80 40 40 03 
90 42 21 47 90 4E 37 22 
80 4C 40 24 80 4E 40 06 
90 51 24 00 90 32 1B 00 
90 3D 1B 59 90 4E 2C 01 
80 51 40 46 80 4E 40 02 
80 42 40 03 90 4A 2C 11 
90 42 2A 22 80 4A 40 15 
90 45 1F 56 90 47 24 00 
90 38 1B 00 90 3B 1B 02 
80 45 40 00 80 32 40 00 
80 3D 40 33 80 42 40 18 
90 40 23 40 80 40 40 1A 
90 3E 25 24 B0 40 7F 29 
80 3E 40 03 90 3D 1E 39 
90 3E 2E 10 80 3D 40 0E 
80 47 40 00 80 38 40 00 
80 3B 40 31 80 3E 40 02 
90 44 33 41 80 44 40 06 
90 45 37 0D 90 3E 39 02 
90 32 30 00 90 42 28 00 
90 3D 28 26 80 3E 40 02 
80 32 40 00 80 42 40 00 
80 3D 40 1A 90 47 3E 16 
80 45 40 04 B0 40 00 35 
90 49 3B 01 90 34 39 05 
90 28 34 00 90 44 2C 00 
90 3D 2C 0F 80 47 40 34 
90 47 3B 03 80 49 40 1E 
B0 40 7F 2F 90 49 41 06 
80 47 40 24 80 34 40 08 
80 28 40 00 80 44 40 00 
80 3D 40 13 90 4A 47 1F 
80 49 40 2E 90 4C 44 13 
80 4A 40 31 80 4C 40 02 
90 4A 48 05 90 49 39 00 
90 45 30 3E 90 4C 49 04 
80 49 40 00 80 45 40 07 
90 47 3F 00 90 44 35 00 
90 49 35 06 80 4A 40 37 
90 4E 4A 13 90 45 2E 00 
90 42 27 08 80 47 40 00 
80 44 40 00 80 49 40 0A 
80 4C 40 26 80 45 40 00 
80 42 40 03 90 44 41 00 
90 40 37 03 90 50 4A 19 
80 4E 40 1C 80 44 40 00 
80 40 40 0D 90 50 4A 43 
80 50 40 0C 90 51 4B 04 
90 4A 3E 04 90 3E 3E 00 
90 49 34 00 90 4E 34 11 
B0 40 00 1B 80 3E 40 00 
80 49 40 00 80 4E 40 03 
80 4A 40 1B 90 53 4C 25 
80 51 40 1D 90 40 38 01 
90 34 39 00 90 49 30 00 
90 50 30 05 90 55 42 18 
B0 40 7F 06 80 53 40 2E 
90 53 3E 0A 80 55 40 28 
80 40 40 0A 80 34 40 00 
80 49 40 00 80 50 40 0F 
90 55 45 11 80 53 40 37 
90 56 4B 26 80 55 40 20 
90 58 44 1A 80 56 40 29 
80 58 40 01 90 56 4A 02 
90 55 40 00 90 51 36 1F 
B0 40 00 25 90 58 4A 00 
80 55 40 00 80 51 40 12 
90 53 43 00 90 50 38 03 
80 56 40 17 B0 40 7F 18 
90 5A 4A 0E 90 51 36 00 
90 4E 2D 00 90 55 2D 19 
80 53 40 00 80 50 40 05 
80 58 40 10 80 51 40 00 
80 4E 40 00 80 55 40 15 
90 5C 49 01 90 50 42 00 
90 4C 38 0E 80 5A 40 1F 
80 5C 40 06 80 50 40 00 
80 4C 40 6B B0 40 00 08 
90 49 4A 02 90 36 46 01 
90 45 47 00 90 3F 43 1E 
80 45 40 00 80 3F 40 04 
80 49 40 09 80 36 40 72 
B0 40 7F 05 90 49 44 01 
90 44 46 00 90 3F 42 01 
90 38 45 31 80 44 40 00 
80 3F 40 05 80 38 40 04 
80 49 40 70 90 2C 46 06 
90 33 3A 27 80 33 40 04 
80 2C 40 26 B0 40 00 4F 
90 47 47 01 90 44 49 00 
90 3F 45 4F B0 40 7F 22 
80 44 40 00 80 3F 40 26 
80 47 40 1C 90 33 47 02 
90 2C 3E 20 B0 40 00 07 
80 2C 40 07 80 33 40 73 
90 49 45 00 90 44 47 00 
90 41 43 81 2D 90 2C 45 
04 90 25 3C 24 80 2C 40 
06 80 25 40 71 B0 40 7F 
18 90 38 3A 01 80 44 40 
00 80 41 40 02 90 31 36 
1D 80 49 40 08 80 38 40 
08 80 31 40 6E B0 40 00 
0D 90 31 4A 04 90 30 3C 
02 90 2D 33 00 90 2A 30 
7E 80 30 40 05 80 2D 40 
00 80 2A 40 26 90 28 2A 
01 90 2C 24 19 80 31 40 
0B 80 28 40 09 80 2C 40 
78 90 2D 29 03 90 31 39 
03 90 2A 20 00 90 27 1E 
14 B0 40 7F 47 80 2D 40 
1E 80 2A 40 00 80 27 40 
34 80 31 40 00 90 2C 26 
0C 90 28 33 00 90 25 30 
20 B0 40 00 81 00 90 34 
3E 23 B0 40 7F 02 80 2C 
40 0A 80 28 40 00 80 25 
40 77 90 2A 34 06 90 2D 
2B 36 80 2D 40 03 80 34 
40 02 90 33 40 04 80 2A 
40 16 90 31 23 37 90 34 
40 05 80 31 40 0A 80 33 
40 0C 90 2F 35 2B 90 36 
44 00 90 33 33 25 B0 40 
00 01 80 2F 40 02 80 34 
40 22 90 2F 30 00 90 28 
2D 06 90 38 45 00 90 34 
33 17 80 36 40 00 80 33 
40 30 90 36 40 00 90 33 
30 0A 80 38 40 00 80 34 
40 2C B0 40 7F 14 90 38 
44 00 90 34 33 12 80 36 
40 00 80 33 40 33 90 39 
4D 00 90 36 39 21 80 38 
40 00 80 34 40 1C 80 2F 
40 00 80 28 40 17 B0 40 
00 01 90 3B 45 00 90 34 
33 0B 90 2C 3C 04 80 39 
40 00 80 36 40 16 80 2C 
40 07 80 3B 40 00 80 34 
40 78 90 34 3B 04 90 31 
35 00 90 2A 32 02 90 2D 
31 15 80 31 40 00 80 2A 
40 13 80 34 40 01 80 2D 
40 81 00 B0 40 7F 02 90 
34 32 03 90 2F 2F 00 90 
2A 2C 01 90 2F 2D 66 80 
2A 40 26 80 34 40 15 80 
2F 40 0C 90 33 2D 2F 80 
33 40 81 05 90 23 23 15 
B0 40 00 3C 90 33 27 00 
90 33 1F 4A 90 38 2C 07 
90 2F 20 22 80 23 40 1C 
90 3B 31 16 B0 40 7F 08 
80 38 40 17 80 2F 40 10 
80 3B 40 00 80 33 40 08 
90 3F 22 24 90 25 1F 00 
90 34 1C 00 B0 40 00 2E 
80 3F 40 04 90 3D 2A 2E 
B0 40 7F 29 80 3D 40 04 
90 3B 27 32 80 25 40 00 
80 34 40 07 80 3B 40 0D 
90 3A 24 1C 80 3A 40 15 
B0 40 00 2A 90 31 22 03 
90 3A 28 0B 90 28 23 00 
90 38 20 28 B0 40 7F 31 
80 31 40 12 80 28 40 00 
80 38 40 38 80 3A 40 0A 
90 3B 20 40 90 3D 24 2C 
80 3B 40 1B B0 40 00 13 
90 3F 24 02 90 27 1E 05 
80 3D 40 02 90 2E 1E 00 
90 36 1B 3B 80 2E 40 00 
80 36 40 07 80 27 40 0C 
B0 40 7F 62 90 3A 20 07 
90 33 1F 81 1D 80 3A 40 
01 90 42 2A 07 80 3F 40 
06 80 33 40 17 80 42 40 
81 0D 90 50 22 00 90 4C 
20 01 90 47 1C 01 B0 40 
00 06 90 3D 1D 01 90 57 
23 81 0B 80 57 40 1E 90 
3F 20 00 90 49 1C 05 80 
50 40 00 80 4C 40 04 90 
4B 1B 00 90 46 22 00 90 
42 20 0C 80 47 40 03 80 
3D 40 1D 80 46 40 00 80 
42 40 02 80 3F 40 00 80 
49 40 04 80 4B 40 71 90 
3A 18 07 B0 40 7F 05 90 
33 19 81 26 80 3A 40 0B 
90 42 1E 15 80 33 40 12 
80 42 40 81 07 90 50 1D 
00 90 4C 1B 01 90 57 22 
01 90 47 16 05 90 3D 1A 
0B B0 40 00 81 05 80 57 
40 1F 90 46 1C 00 90 42 
1A 01 90 3F 1E 00 90 49 
1B 00 90 4B 21 14 80 50 
40 00 80 4C 40 01 80 47 
40 04 80 3D 40 10 80 3F 
40 00 80 49 40 0A 80 46 
40 00 80 42 40 03 80 4B 
40 7C 90 3A 19 07 90 33 
1A 36 B0 40 7F 7B 90 42 
22 10 80 3A 40 13 80 33 
40 09 80 42 40 81 07 90 
50 1E 00 90 4C 1C 03 90 
3D 1A 01 90 57 22 03 90 
47 18 0C B0 40 00 81 1E 
90 3F 21 00 90 49 1D 01 
80 57 40 02 90 4B 21 03 
90 46 1C 00 90 42 1A 0B 
80 50 40 00 80 4C 40 05 
80 47 40 04 80 3D 40 07 
80 3F 40 00 80 49 40 04 
80 46 40 00 80 42 40 11 
80 4B 40 81 05 90 2E 18 
08 90 27 1B 02 B0 40 7F 
81 22 80 2E 40 03 80 27 
40 81 35 B0 40 00 05 90 
2E 1B 08 90 27 1C 45 B0 
40 7F 3C 80 2E 40 03 80 
27 40 81 3A B0 40 00 14 
90 33 54 01 90 32 38 02 
90 2F 30 00 90 2C 2D 4E 
B0 40 7F 39 80 32 40 0A 
80 2F 40 00 80 2C 40 15 
90 2A 35 03 90 2E 2C 00 
B0 40 00 1D 80 33 40 0A 
80 2A 40 07 80 2E 40 7D 
90 2F 35 01 90 33 47 03 
90 2C 26 00 90 29 24 08 
B0 40 7F 58 80 2F 40 2F 
80 2C 40 00 80 29 40 14 
90 2E 2F 09 90 2A 36 00 
90 27 33 11 80 33 40 01 
B0 40 00 81 1C 90 36 44 
0C B0 40 7F 1D 80 2E 40 
01 80 2A 40 00 80 27 40 
72 90 2C 3E 08 90 2F 32 
3F 80 36 40 03 90 35 44 
05 80 2F 40 09 80 2C 40 
05 90 33 2E 37 90 36 44 
10 90 31 40 03 80 35 40 
01 80 33 40 32 90 38 48 
00 90 35 36 11 B0 40 00 
1A 80 36 40 04 80 31 40 
14 90 31 3C 00 90 2A 39 
0C 90 3A 47 00 90 36 35 
1B 80 38 40 00 80 35 40 
2A 90 38 45 00 90 35 33 
07 80 3A 40 00 80 36 40 
44 90 3A 45 00 90 36 33 
16 80 38 40 00 80 35 40 
2A 90 3B 4A 00 90 38 37 
2C 80 3A 40 00 80 36 40 
2B 80 31 40 00 80 2A 40 
06 90 3D 4A 00 90 36 37 
0C 90 2E 44 0A 80 3B 40 
00 80 38 40 1C 80 2E 40 
02 80 3D 40 00 80 36 40 
76 90 33 42 00 90 2C 3E 
01 90 36 40 02 90 2F 3C 
21 80 33 40 00 80 2C 40 
07 80 36 40 07 80 2F 40 
7B 90 36 3C 02 90 31 3C 
00 90 2C 39 03 90 31 39 
13 B0 40 7F 81 1F 90 35 
42 03 80 36 40 08 80 2C 
40 04 80 31 40 29 80 35 
40 66 90 25 34 21 B0 40 
00 29 90 35 35 00 90 35 
35 4E 90 31 28 02 90 3A 
33 31 80 25 40 1B 90 3D 
36 1D 80 3A 40 13 80 31 
40 0A B0 40 7F 07 90 27 
2C 00 90 36 26 0B 80 3D 
40 00 80 35 40 03 90 41 
2B 4E 90 3F 2F 0C 80 41 
40 1F 80 27 40 00 80 36 
40 26 90 3D 32 02 80 3F 
40 38 80 3D 40 14 90 3C 
31 27 80 3C 40 0F B0 40 
00 1E 90 2A 20 00 90 3A 
1C 02 90 3C 2C 06 90 33 
1E 3F B0 40 7F 4C 80 33 
40 14 80 2A 40 00 80 3A 
40 0D 90 3D 2A 07 80 3C 
40 45 90 3F 2C 29 80 3D 
40 17 B0 40 00 0F 90 41 
24 0E 90 30 1E 01 80 3F 
40 03 90 29 1B 00 90 38 
17 3A B0 40 7F 02 80 30 
40 00 80 29 40 00 80 38 
40 64 90 3C 21 09 90 35 
20 43 80 41 40 13 80 35 
40 2A 80 3C 40 1D 90 44 
21 33 80 44 40 6D B0 40 
00 08 90 49 19 0E 90 3F 
1E 01 90 52 1D 00 90 4E 
1B 05 90 59 24 81 15 B0 
40 7F 06 80 59 40 0A 90 
41 20 00 90 4B 1C 07 80 
49 40 03 90 48 1D 00 90 
44 1B 01 80 52 40 00 80 
4E 40 00 90 4D 21 0C B0 
40 00 01 80 3F 40 0F 80 
41 40 00 80 4B 40 1B 80 
48 40 00 80 44 40 08 80 
4D 40 61 B0 40 7F 01 90 
3C 19 08 90 35 1D 81 27 
80 3C 40 08 90 44 23 17 
80 35 40 17 80 44 40 81 
04 90 52 23 00 90 4E 21 
07 90 49 16 01 90 59 20 
00 B0 40 00 01 90 3F 1A 
77 B0 40 7F 28 80 59 40 
11 80 49 40 01 90 41 1C 
00 90 4B 19 05 90 4D 1B 
05 90 48 14 00 90 44 13 
03 80 3F 40 04 80 52 40 
00 80 4E 40 15 80 41 40 
00 80 4B 40 08 80 48 40 
00 80 44 40 05 80 4D 40 
10 B0 40 00 6D 90 3C 1B 
03 90 35 1F 33 B0 40 7F 
7A 90 44 22 14 80 3C 40 
06 80 35 40 1B 80 44 40 
74 90 52 24 00 90 4E 22 
03 90 49 1C 05 90 3F 1E 
01 90 59 24 0C B0 40 00 
81 18 90 41 26 00 90 4B 
22 03 80 59 40 02 90 4D 
30 01 80 52 40 00 80 4E 
40 03 90 48 20 00 90 44 
1E 0B 80 3F 40 02 80 49 
40 0B 80 41 40 00 80 4B 
40 00 80 48 40 00 80 44 
40 1B 80 4D 40 69 B0 40 
7F 13 90 30 18 03 90 29 
1C 81 29 80 30 40 04 80 
29 40 81 38 B0 40 00 0E 
90 30 1D 04 90 29 1E 1E 
B0 40 7F 6E 80 30 40 08 
80 29 40 81 47 B0 40 00 
0D 90 35 54 07 90 31 3B 
00 90 2E 38 01 90 34 40 
46 B0 40 7F 2D 80 34 40 
02 80 31 40 00 80 2E 40 
06 B0 40 00 1F 90 2C 3C 
00 90 30 38 13 80 35 40 
16 80 2C 40 04 80 30 40 
7D 90 31 3C 02 90 35 4E 
02 90 2E 2E 00 90 2A 2A 
0B B0 40 7F 65 80 31 40 
1E 80 2E 40 00 80 2A 40 
06 90 30 2C 09 90 2C 3A 
00 90 29 35 18 80 35 40 
81 1B 90 38 49 1B 80 30 
40 09 80 2C 40 00 80 29 
40 7F 90 2E 3E 00 90 31 
3C 42 80 2E 40 08 90 36 
41 01 80 38 40 09 80 31 
40 0B 90 35 38 37 90 38 
44 12 80 36 40 04 90 33 
40 00 90 2E 39 00 80 35 
40 32 90 3A 48 22 B0 40 
00 04 80 33 40 00 80 2E 
40 07 80 38 40 18 90 2C 
3E 00 90 31 37 0A 90 3B 
4B 00 90 35 43 20 80 3A 
40 2A 90 3A 48 0A 80 3B 
40 31 B0 40 7F 16 90 3B 
48 1B 80 3A 40 32 90 3D 
4D 30 80 3B 40 23 90 3F 
4B 18 80 3D 40 25 80 2C 
40 11 80 3F 40 00 80 35 
40 58 90 3B 54 00 90 35 
4B 03 90 2D 47 25 80 2D 
40 00 80 31 40 0B 80 3B 
40 00 80 35 40 42 B0 40 
00 24 90 2E 48 00 90 32 
40 08 90 3B 4A 00 90 3A 
42 2F B0 40 7F 14 80 2E 
40 04 90 3A 4F 03 80 3B 
40 06 90 2C 3D 40 80 2C 
40 09 90 3F 46 08 90 2A 
32 2E 90 29 3C 0E 90 41 
4C 04 80 2A 40 1B 80 3F 
40 07 B0 40 00 0A 80 29 
40 00 80 32 40 22 90 42 
4A 00 90 3A 42 0A 90 33 
42 01 90 27 44 11 80 41 
40 28 90 41 44 0D 80 42 
40 17 B0 40 7F 03 80 33 
40 08 80 27 40 2A 90 42 
48 12 80 41 40 3A 90 44 
4F 0E 90 31 41 05 90 25 
39 06 80 42 40 0E 80 25 
40 05 B0 40 00 04 80 31 
40 25 90 46 48 00 90 3A 
40 00 90 3F 42 07 90 30 
39 04 90 24 44 06 80 44 
40 56 B0 40 7F 3E 90 42 
4D 00 90 38 45 0C 80 46 
40 00 80 3A 40 14 80 24 
40 03 80 30 40 0F 80 42 
40 00 80 3F 40 5A B0 40 
00 18 90 42 4D 00 90 3D 
46 01 90 31 40 03 90 25 
3C 35 80 42 40 44 B0 40 
7F 28 90 49 41 01 90 41 
3D 4F 90 4B 47 06 80 41 
40 31 80 49 40 0D 90 4D 
41 0E 80 4B 40 00 80 38 
40 00 80 3D 40 2C 80 25 
40 08 80 31 40 0E 90 4B 
4D 12 80 4D 40 37 80 4B 
40 01 90 4D 42 42 B0 40 
00 08 90 4E 40 04 90 33 
39 05 90 27 2F 0C 80 4D 
40 0B 80 27 40 03 80 33 
40 30 80 4E 40 03 90 50 
3B 00 90 44 35 00 90 49 
36 02 B0 40 7F 00 90 35 
2E 05 90 29 31 81 2A 90 
47 3D 00 90 3D 36 00 90 
43 38 08 80 35 40 01 80 
50 40 00 80 44 40 00 80 
49 40 05 80 29 40 81 22 
90 34 1E 81 14 80 34 40 
0A 80 47 40 04 80 3D 40 
00 80 43 40 00 90 46 2A 
00 90 42 26 81 23 B0 40 
00 09 90 2D 1D 01 90 21 
22 36 80 46 40 00 80 42 
40 13 90 31 2E 00 90 31 
2A 3E 80 21 40 04 B0 40 
7F 03 80 2D 40 13 90 36 
29 00 90 45 26 45 90 39 
3C 2B 80 36 40 1E 90 3D 
37 00 90 32 31 00 90 39 
32 04 B0 40 00 05 90 2F 
30 05 90 23 31 05 80 45 
40 00 80 31 40 44 90 3B 
48 0D B0 40 7F 09 80 3D 
40 20 80 2F 40 05 80 23 
40 0C 90 39 42 1F 80 3B 
40 2F 90 38 48 31 80 38 
40 00 80 32 40 00 80 39 
40 07 B0 40 00 1D 90 38 
40 00 90 36 3A 0C 90 32 
3F 01 90 26 3E 2D B0 40 
7F 38 80 32 40 07 80 26 
40 33 90 39 40 08 80 38 
40 43 90 3B 4A 22 80 39 
40 07 B0 40 00 20 80 3B 
40 00 80 36 40 0D 90 3D 
4A 00 90 34 42 06 90 31 
47 01 90 25 44 2C 80 3D 
40 00 80 34 40 08 80 31 
40 02 B0 40 7F 05 80 25 
40 65 90 56 52 0B 90 51 
42 03 90 55 35 2B 80 51 
40 13 80 55 40 60 90 50 
44 01 90 53 3F 14 80 56 
40 16 80 50 40 0A 80 53 
40 4D B0 40 00 1C B0 40 
7F 03 90 56 4F 02 90 4E 
38 02 90 51 40 33 80 51 
40 18 80 4E 40 53 90 50 
3E 01 80 56 40 05 90 4C 
3C 2E 80 4C 40 04 80 50 
40 19 90 56 4C 40 80 56 
40 0F 90 55 45 00 90 4E 
46 00 90 4A 3F 06 90 42 
43 00 90 39 3F 00 90 3E 
3F 03 90 45 42 21 80 45 
40 06 80 42 40 00 80 39 
40 00 80 3E 40 10 B0 40 
00 03 90 53 4B 03 80 4E 
40 00 80 4A 40 0B 80 55 
40 4D 90 31 44 01 90 25 
40 00 90 55 4A 01 80 53 
40 03 90 4C 42 00 90 44 
3E 0C B0 40 7F 28 80 4C 
40 00 80 44 40 02 80 31 
40 03 80 25 40 12 80 55 
40 68 90 50 38 00 90 55 
4F 01 90 53 3B 2C 80 53 
40 14 80 50 40 61 90 4E 
32 02 90 51 37 19 80 55 
40 15 80 51 40 08 80 4E 
40 75 90 55 4C 02 90 4C 
34 01 90 50 3A 17 B0 40 
00 1B 80 50 40 18 80 4C 
40 02 B0 40 7F 4F 90 4E 
31 08 90 4A 3B 0C 80 55 
40 14 80 4E 40 06 80 4A 
40 2C 90 55 49 3B 80 55 
40 0E 90 4C 3C 00 90 49 
39 01 90 53 39 06 90 40 
3D 00 90 38 39 00 90 3D 
39 02 90 44 3A 1E 80 44 
40 04 80 40 40 00 80 38 
40 00 80 3D 40 1B 80 53 
40 02 90 51 48 04 80 4C 
40 00 80 49 40 08 B0 40 
00 41 90 31 3C 01 80 51 
40 02 90 25 36 04 90 4A 
44 00 90 42 40 02 90 53 
42 1B B0 40 7F 1B 80 25 
40 00 80 31 40 0A 80 4A 
40 00 80 42 40 0F 80 53 
40 5E 90 53 49 01 90 4E 
38 00 90 51 3E 24 80 51 
40 16 80 4E 40 68 90 4C 
3D 02 90 50 35 16 80 53 
40 16 80 4C 40 03 80 50 
40 6F 90 53 4A 04 90 4E 
3B 02 90 4A 32 2E 80 4E 
40 0E 80 4A 40 5F 90 4C 
35 04 80 53 40 06 90 49 
37 25 80 4C 40 04 80 49 
40 19 90 53 40 46 80 53 
40 0C 90 4A 36 00 90 47 
33 07 90 51 2E 04 90 3E 
2C 00 90 36 29 00 90 3B 
29 00 90 42 2E 1E 80 3E 
40 00 80 36 40 00 80 3B 
40 03 80 42 40 0E 80 4A 
40 00 80 47 40 03 90 50 
3C 02 80 51 40 2E B0 40 
00 23 80 50 40 0C 90 51 
39 01 90 49 31 00 90 40 
2C 04 90 31 37 02 90 25 
33 28 80 31 40 05 80 25 
40 02 B0 40 7F 0B 80 49 
40 00 80 40 40 0B 90 50 
37 05 80 51 40 43 90 3E 
2C 00 90 3E 2C 00 90 49 
2B 0C 90 4E 2B 13 80 50 
40 1D 90 4C 34 0C 80 4E 
40 31 80 49 40 01 80 4C 
40 1A 90 4E 35 51 90 4C 
37 13 80 4E 40 2F 90 4A 
24 00 90 47 21 19 80 4C 
40 24 90 49 36 00 90 45 
31 01 80 4A 40 00 80 47 
40 27 80 49 40 00 80 45 
40 0B 90 47 26 03 B0 40 
00 0E 90 49 44 08 80 47 
40 06 90 44 24 04 90 42 
22 14 90 47 2E 16 80 49 
40 50 B0 40 7F 1B 80 47 
40 0F 90 45 31 11 80 44 
40 00 80 42 40 00 80 3E 
40 36 80 45 40 03 90 47 
32 49 80 47 40 08 90 49 
35 00 90 40 30 0E 90 31 
21 00 90 25 1F 2C 80 31 
40 00 80 25 40 0B 80 49 
40 00 80 40 40 3C B0 40 
00 28 90 50 2A 05 90 56 
36 04 90 55 20 20 80 55 
40 0B B0 40 7F 00 80 50 
40 18 80 56 40 04 90 51 
29 38 80 51 40 07 90 4E 
28 09 90 53 21 0C 90 4A 
24 13 80 53 40 0D 80 4E 
40 00 80 4A 40 0D 90 45 
38 4E 80 45 40 01 90 45 
41 05 90 49 2F 04 90 44 
23 27 80 44 40 02 80 49 
40 1D 90 4A 30 03 80 45 
40 3F 80 4A 40 11 90 51 
35 05 90 47 2F 07 90 42 
23 21 80 42 40 05 80 47 
40 08 80 51 40 09 90 56 
38 44 80 56 40 13 90 4E 
34 00 90 4A 31 03 90 55 
2F 07 90 45 2C 00 90 39 
29 04 90 3E 27 00 90 42 
23 20 80 45 40 00 80 39 
40 01 80 3E 40 00 80 42 
40 0F 80 4E 40 00 80 4A 
40 0A 90 53 3C 03 80 55 
40 2D B0 40 00 28 80 53 
40 09 90 31 3B 00 90 25 
38 01 90 55 3E 01 90 4C 
40 00 90 44 3C 36 B0 40 
7F 04 80 31 40 00 80 25 
40 01 80 4C 40 00 80 44 
40 0E B0 40 00 01 80 55 
40 26 B0 40 7F 47 90 55 
3D 02 90 4E 25 01 90 53 
28 24 80 53 40 0C 80 4E 
40 1C 80 55 40 03 90 50 
30 37 80 50 40 07 90 4C 
28 05 90 51 26 0C 90 49 
36 1A 80 51 40 0B 80 4C 
40 17 80 49 40 0D 90 44 
34 3E 90 42 2A 05 90 47 
2C 01 80 44 40 01 90 44 
3E 21 80 47 40 01 80 42 
40 28 90 49 32 0F 80 44 
40 2E 80 49 40 04 90 40 
36 01 90 45 30 06 90 50 
3E 1C 80 45 40 0A 80 40 
40 1F 80 50 40 03 90 55 
45 4E 80 55 40 06 90 44 
39 00 90 38 36 02 90 4C 
42 00 90 49 3E 01 90 53 
3F 01 90 3D 33 00 90 40 
2E 1E 80 44 40 00 80 38 
40 03 80 3D 40 00 80 40 
40 17 80 4C 40 00 80 49 
40 07 90 51 41 03 80 53 
40 32 B0 40 00 24 90 31 
3E 00 90 25 3A 00 80 51 
40 01 90 4A 47 00 90 42 
43 02 90 53 45 3A B0 40 
7F 05 80 4A 40 00 80 42 
40 02 80 31 40 00 80 25 
40 0D 80 53 40 5E 90 53 
3F 07 90 51 33 02 90 4C 
2D 21 80 51 40 0C 80 4C 
40 16 90 4E 34 06 80 53 
40 33 80 4E 40 0D 90 50 
2C 03 90 4A 2C 01 90 47 
39 31 80 4A 40 0E 80 50 
40 08 80 47 40 04 90 42 
3B 46 90 42 42 07 90 40 
2A 02 90 45 38 2A 80 45 
40 05 80 40 40 17 90 47 
3E 19 80 42 40 2B 90 4E 
48 01 80 47 40 03 90 44 
3E 03 90 3E 3B 24 80 44 
40 07 80 3E 40 1A 90 53 
49 05 80 4E 40 4F 80 53 
40 04 90 42 3C 00 90 36 
39 01 90 3B 3A 00 90 3E 
35 01 90 51 47 01 90 4A 
49 00 90 47 45 22 80 42 
40 00 80 36 40 09 80 3B 
40 00 80 3E 40 14 80 4A 
40 00 80 47 40 04 90 50 
42 04 80 51 40 0C B0 40 
00 44 90 31 41 00 90 25 
3D 01 80 50 40 01 90 49 
44 00 90 40 40 06 90 51 
46 21 80 31 40 00 80 25 
40 15 80 49 40 00 80 40 
40 09 B0 40 7F 07 90 50 
40 0E 80 51 40 32 90 3E 
35 00 90 3E 35 02 90 49 
31 0F 90 4E 3E 24 80 50 
40 26 90 4C 46 05 80 4E 
40 3F 80 4C 40 06 90 4E 
3C 14 80 49 40 3A 90 4C 
42 11 80 4E 40 2F 90 4A 
2F 00 90 47 2B 16 80 4C 
40 25 80 4A 40 00 80 47 
40 02 90 49 35 00 90 45 
30 16 80 49 40 00 80 45 
40 05 B0 40 00 0A 90 47 
3F 12 90 49 52 01 90 42 
3A 02 90 44 33 16 80 47 
40 1F 90 47 38 1D 80 49 
40 4F B0 40 7F 14 80 47 
40 08 90 45 40 12 80 44 
40 08 80 42 40 00 80 3E 
40 22 80 45 40 10 90 47 
38 4D 90 49 3C 00 90 44 
37 05 90 40 2D 01 80 47 
40 07 90 3D 26 20 80 40 
40 01 80 3D 40 09 80 49 
40 00 80 44 40 09 B0 40 
00 64 90 3D 3C 05 90 36 
32 00 90 39 2D 06 90 2D 
29 31 80 36 40 00 80 39 
40 0B 80 2D 40 01 B0 40 
7F 5C B0 40 00 03 90 32 
2D 01 90 34 2A 00 90 37 
25 29 80 3D 40 08 80 34 
40 00 80 37 40 03 80 32 
40 08 90 39 39 59 90 3B 
41 03 90 34 38 00 90 37 
32 02 B0 40 7F 07 90 2D 
2D 05 80 39 40 2A 80 34 
40 00 80 37 40 01 80 2D 
40 16 90 3D 48 10 80 3B 
40 15 80 3D 40 23 B0 40 
00 07 90 3D 4E 01 90 25 
3E 01 90 2C 3D 00 90 34 
35 00 90 38 36 2A 80 2C 
40 00 80 34 40 00 80 38 
40 00 80 3D 40 05 80 25 
40 6D 90 3E 46 00 90 42 
3D 00 90 45 3F 01 90 47 
54 04 90 32 43 16 B0 40 
7F 4A 80 3E 40 00 80 42 
40 00 80 45 40 04 80 32 
40 3A 90 37 3E 01 90 3C 
46 00 90 40 3D 00 90 43 
3F 02 B0 40 00 2E 80 47 
40 03 80 37 40 08 80 3C 
40 00 80 40 40 00 80 43 
40 0C 90 43 47 1B B0 40 
7F 35 90 45 4C 03 90 3C 
42 00 90 40 3A 00 90 42 
3B 02 B0 40 00 03 90 32 
3D 0C 80 43 40 29 80 3C 
40 00 80 40 40 00 80 42 
40 03 80 32 40 0A 90 47 
51 15 80 45 40 18 80 47 
40 21 90 36 45 00 90 3B 
3B 00 90 3E 3C 00 90 42 
3E 01 90 2F 43 04 90 47 
51 31 80 47 40 02 80 2F 
40 01 80 36 40 00 80 3B 
40 00 80 3E 40 00 80 42 
40 70 90 3D 4C 03 90 36 
42 00 90 39 3B 03 90 2D 
3D 12 B0 40 7F 27 80 36 
40 00 80 39 40 10 80 2D 
40 53 90 34 3E 00 90 37 
37 03 90 32 38 30 80 3D 
40 06 80 34 40 00 80 37 
40 04 80 32 40 05 90 39 
48 38 B0 40 00 0F 90 34 
40 00 90 37 39 06 90 2D 
40 03 90 3B 50 11 80 39 
40 17 80 34 40 00 80 37 
40 05 80 2D 40 19 90 3D 
53 0B 80 3B 40 1F 80 3D 
40 24 90 2C 47 00 90 34 
3E 00 90 38 3F 02 90 25 
41 03 90 3D 55 2F 80 2C 
40 00 80 34 40 00 80 38 
40 01 80 25 40 06 80 3D 
40 68 90 3E 4A 00 90 42 
41 00 90 45 42 02 90 32 
48 00 90 47 5C 38 B0 40 
7F 2D 80 3E 40 00 80 42 
40 00 80 45 40 06 80 32 
40 3A 90 3C 4A 00 90 40 
41 00 90 43 42 01 90 37 
48 2C B0 40 00 0B 80 47 
40 02 80 3C 40 00 80 40 
40 00 80 43 40 04 80 37 
40 03 90 43 4C 4B 90 45 
4C 06 B0 40 7F 01 90 3C 
47 00 90 40 3E 00 90 42 
3F 08 90 32 3F 08 80 43 
40 29 80 3C 40 00 80 40 
40 00 80 42 40 07 80 32 
40 07 90 47 50 17 80 45 
40 06 B0 40 00 10 80 47 
40 24 90 36 48 00 90 3B 
3D 00 90 3E 3F 00 90 42 
40 02 90 2F 44 02 90 47 
54 23 80 2F 40 05 80 36 
40 00 80 3B 40 00 80 3E 
40 00 80 42 40 03 80 47 
40 67 90 42 4D 00 90 42 
4D 02 90 3E 45 00 90 3B 
3F 01 90 23 47 00 90 17 
3F 18 B0 40 7F 05 B0 40 
00 1C B0 40 7F 04 80 23 
40 00 80 17 40 13 80 3E 
40 00 80 3B 40 0D 90 25 
49 00 90 19 41 3B 80 25 
40 00 80 19 40 05 90 39 
4D 00 90 3D 4C 0F 90 26 
44 00 90 1A 3D 18 B0 40 
00 1F 80 26 40 00 80 1A 
40 07 80 39 40 12 80 3D 
40 00 80 42 40 02 90 28 
4B 00 90 1C 43 22 B0 40 
7F 21 80 28 40 00 80 1C 
40 06 90 42 4A 00 90 3E 
44 02 90 2A 47 00 90 1E 
3F 01 90 45 4F 00 90 45 
4F 45 80 42 40 00 80 3E 
40 08 90 2B 4A 00 90 1F 
42 05 80 2A 40 00 80 1E 
40 0F B0 40 00 36 90 2D 
45 00 90 21 3E 02 80 2B 
40 00 80 1F 40 06 90 3D 
4D 01 90 40 45 43 90 2F 
46 00 90 23 3F 0C 80 2D 
40 00 80 21 40 01 80 3D 
40 0B B0 40 7F 0F 80 40 
40 00 80 45 40 24 80 2F 
40 00 80 23 40 06 90 31 
45 00 90 25 3E 0C 90 45 
46 00 90 42 40 00 90 49 
4A 00 90 49 4A 40 80 31 
40 00 80 25 40 02 90 32 
47 00 90 26 3F 0F 80 45 
40 00 80 42 40 2A B0 40 
00 0E 80 32 40 00 80 26 
40 02 90 34 3F 00 90 28 
38 18 90 40 4A 01 90 43 
43 2D B0 40 7F 02 80 34 
40 00 80 28 40 12 90 36 
47 00 90 2A 3F 0A 80 40 
40 15 80 43 40 00 80 49 
40 1A B0 40 00 01 80 36 
40 00 80 2A 40 10 90 37 
42 00 90 2B 3B 07 B0 40 
7F 0B 90 4A 44 00 90 47 
3E 02 90 4E 47 00 90 4E 
47 3B 80 37 40 00 80 2B 
40 05 90 39 45 00 90 2D 
3E 04 80 4A 40 00 80 47 
40 3A B0 40 00 06 80 39 
40 00 80 2D 40 0D 90 3B 
45 00 90 2F 3E 06 90 49 
45 01 90 45 4D 3E 80 3B 
40 00 80 2F 40 04 80 45 
40 09 90 3D 49 00 90 31 
41 0F 80 49 40 00 80 4E 
40 3B 80 3D 40 00 80 31 
40 05 90 4A 43 00 90 43 
3C 00 90 47 3D 05 90 4E 
45 00 90 4E 45 01 90 3E 
4D 00 90 32 45 28 B0 40 
7F 0B 80 4A 40 00 80 43 
40 00 80 47 40 0D B0 40 
00 04 90 40 48 00 90 34 
40 0A 80 3E 40 00 80 32 
40 48 90 42 48 00 90 36 
40 03 80 40 40 00 80 34 
40 0D 90 45 50 00 90 42 
49 01 90 49 4B 37 B0 40 
7F 15 80 45 40 10 80 49 
40 00 80 4E 40 2E 80 42 
40 00 80 36 40 1A 90 51 
5A 81 1D 90 3B 40 00 90 
45 36 00 90 4A 36 02 90 
2F 39 31 80 3B 40 00 80 
45 40 00 80 4A 40 0E 80 
2F 40 1B 90 4F 44 01 80 
51 40 41 90 40 33 00 90 
44 2B 00 90 4A 2B 01 90 
34 35 02 80 4F 40 05 90 
4E 48 28 80 34 40 09 80 
40 40 00 80 44 40 00 80 
4A 40 0C 80 4E 40 0A 90 
4C 3E 46 90 36 2B 00 90 
45 24 00 90 49 24 02 80 
4C 40 04 90 2A 2E 05 90 
4E 44 21 80 2A 40 02 80 
36 40 00 80 45 40 00 80 
49 40 23 80 4E 40 04 90 
4F 35 50 90 51 45 04 90 
42 39 00 90 42 39 02 90 
41 34 00 90 3E 2E 00 90 
3B 2E 0A 80 4F 40 2B 80 
41 40 00 80 3E 40 00 80 
3B 40 18 90 53 39 1B 80 
51 40 29 90 55 3E 0D 90 
3D 22 03 80 53 40 00 90 
39 2C 20 80 55 40 05 80 
3D 40 00 80 42 40 01 80 
39 40 03 B0 40 00 79 90 
42 2E 00 90 42 2E 02 90 
55 35 03 90 3E 22 00 90 
3B 1E 00 90 37 1E 20 B0 
40 7F 10 80 3E 40 00 80 
3B 40 00 80 37 40 70 90 
3D 25 0A 90 39 2F 00 90 
36 2A 26 80 55 40 01 80 
3D 40 00 80 42 40 07 80 
39 40 00 80 36 40 28 90 
51 31 4B 90 4E 38 04 80 
51 40 05 90 45 2B 34 B0 
40 00 1C 80 4E 40 01 90 
49 2C 3D 80 49 40 0E 90 
4A 2B 00 90 3E 20 00 90 
3B 20 47 80 45 40 0F 80 
4A 40 00 80 3E 40 00 80 
3B 40 09 90 44 27 57 80 
44 40 04 90 42 33 58 90 
40 2B 06 80 42 40 44 90 
42 37 03 80 40 40 50 90 
4C 39 51 90 4E 30 01 80 
4C 40 05 80 42 40 04 90 
44 21 3B 90 50 38 13 80 
4E 40 34 80 50 40 0A 90 
53 23 00 90 3E 1A 00 90 
34 1A 56 80 53 40 06 90 
50 2C 40 80 44 40 08 80 
50 40 08 90 4C 27 06 90 
44 26 2C 80 4C 40 14 90 
47 2B 53 80 47 40 00 80 
3E 40 00 80 34 40 06 90 
49 23 00 90 3D 1A 00 90 
39 1A 0C B0 40 7F 15 80 
44 40 1C 90 42 22 38 80 
42 40 1B 90 40 27 43 90 
3E 25 01 80 40 40 43 80 
3E 40 02 90 40 31 10 80 
49 40 00 80 3D 40 00 80 
39 40 44 90 4A 35 52 90 
4C 36 02 80 4A 40 0A 90 
42 28 05 80 40 40 12 B0 
40 00 28 90 4E 39 1B 80 
4C 40 35 80 4E 40 00 90 
51 23 00 90 3D 1A 00 90 
32 1A 5C 80 51 40 03 90 
4E 30 4B 80 4E 40 06 90 
4A 2D 05 80 42 40 0B 90 
42 25 25 80 4A 40 1A 90 
45 27 51 90 47 2A 00 90 
3B 1F 00 90 38 1F 0C 80 
45 40 00 80 3D 40 00 80 
32 40 29 80 42 40 1A 90 
40 2A 08 B0 40 7F 35 80 
40 40 15 90 3E 2F 42 90 
3D 2B 0E 80 3E 40 40 90 
3E 3C 06 80 3D 40 23 80 
47 40 00 80 3B 40 00 80 
38 40 1E 90 49 43 0D 80 
3E 40 45 90 4A 40 00 90 
42 36 00 90 47 36 02 80 
49 40 07 90 44 41 03 90 
38 3C 2B 80 44 40 02 80 
38 40 0B 90 4C 47 24 B0 
40 00 08 80 4A 40 2B 90 
4E 46 00 90 42 3B 00 90 
49 3B 06 90 2D 3E 01 90 
39 3F 17 80 4C 40 00 80 
47 40 2B 90 4C 46 0A 80 
4E 40 00 80 42 40 00 80 
49 40 35 B0 40 7F 15 90 
4E 44 15 80 4C 40 25 80 
39 40 0E 80 2D 40 03 90 
50 48 2B 80 4E 40 24 90 
51 45 1A 80 50 40 2A 90 
50 4A 00 90 50 3E 02 90 
4E 42 00 90 4A 3B 02 80 
51 40 47 90 51 4A 03 80 
4E 40 00 80 4A 40 03 90 
4C 3C 00 90 49 36 29 B0 
40 00 15 90 53 4F 00 90 
4E 43 03 90 4A 37 00 90 
47 31 17 80 4C 40 00 80 
49 40 15 80 51 40 00 80 
50 40 15 90 49 3A 00 90 
45 34 04 80 4A 40 00 80 
47 40 0C 90 55 4B 01 B0 
40 7F 1C 80 53 40 1A 80 
49 40 00 80 45 40 0F 90 
55 4A 0D 80 4E 40 41 90 
50 42 02 90 56 49 00 90 
4E 3E 00 90 53 3E 02 90 
44 39 10 80 55 40 18 80 
50 40 05 80 44 40 1C 90 
58 46 0B B0 40 00 1F 80 
56 40 1C 90 45 41 01 90 
39 3E 13 90 5A 42 00 90 
4E 38 00 90 55 38 16 B0 
40 7F 0C 80 58 40 00 80 
53 40 25 90 58 42 09 80 
5A 40 00 80 4E 40 00 80 
55 40 49 90 5A 42 15 80 
58 40 15 80 39 40 0A 80 
45 40 1A 90 5C 47 2A 80 
5A 40 31 90 5D 43 18 80 
5C 40 1F B0 40 00 08 80 
5D 40 04 90 5C 4A 00 90 
5C 3E 09 90 5A 40 00 90 
56 39 46 B0 40 7F 03 90 
5D 44 06 80 5A 40 00 80 
56 40 08 90 58 44 00 90 
55 3D 3A 90 5F 4E 00 90 
5A 42 0E 90 56 38 00 90 
53 32 16 80 58 40 00 80 
55 40 09 B0 40 00 03 80 
5D 40 00 80 5C 40 1A 80 
56 40 00 80 53 40 0F 90 
55 47 00 90 51 3F 03 90 
61 4C 10 80 5F 40 13 B0 
40 7F 08 80 61 40 00 80 
5A 40 07 80 55 40 00 80 
51 40 81 07 90 4A 50 00 
90 44 49 00 90 42 4E 03 
B0 40 00 01 90 4E 45 05 
90 3B 47 00 90 2F 40 2D 
80 2F 40 03 80 3B 40 03 
80 42 40 06 80 4A 40 00 
80 44 40 02 80 4E 40 81 
09 B0 40 7F 04 90 38 44 
00 90 31 3D 00 90 49 4A 
00 90 44 44 01 90 3D 3D 
05 90 42 42 00 90 4E 3C 
46 80 42 40 02 80 4E 40 
03 80 49 40 00 80 44 40 
07 80 38 40 00 80 31 40 
03 80 3D 40 7B 90 25 49 
01 90 2C 47 36 80 2C 40 
02 80 25 40 81 13 B0 40 
00 16 90 49 52 00 90 44 
4B 02 90 40 4A 01 90 38 
47 00 90 31 3F 02 90 4C 
47 00 90 3D 48 41 B0 40 
7F 1E 80 3D 40 09 80 38 
40 00 80 31 40 04 80 40 
40 02 80 4C 40 0E 80 49 
40 00 80 44 40 6F 90 25 
4D 02 90 2C 4D 37 80 25 
40 00 80 2C 40 81 30 B0 
40 00 1A 90 3D 47 00 90 
49 52 00 90 46 4B 01 90 
36 3E 00 90 31 37 01 90 
42 4C 01 90 4E 47 44 B0 
40 7F 03 80 42 40 08 80 
49 40 00 80 46 40 02 80 
4E 40 2B 80 36 40 00 80 
31 40 81 20 B0 40 00 02 
90 1E 46 01 90 25 48 2D 
B0 40 7F 6E 80 25 40 08 
80 1E 40 81 50 B0 40 00 
07 90 2A 48 01 90 31 48 
37 B0 40 7F 63 80 31 40 
0A 80 2A 40 82 4C B0 40 
00 52 B0 40 7F 48 B0 40 
00 86 1D B0 40 7F 2B 80 
3D 40 88 50 B0 40 00 13 
90 46 2F 00 90 36 20 0B 
90 42 1A 2E 80 42 40 1E 
B0 40 7F 5F 90 42 16 25 
80 42 40 1B 80 46 40 00 
80 36 40 06 90 47 25 00 
90 38 19 4D 80 47 40 00 
80 38 40 06 90 42 24 05 
90 49 28 00 90 3A 1C 06 
B0 40 00 31 80 42 40 12 
B0 40 7F 68 90 42 1C 30 
80 42 40 7F B0 40 00 04 
90 42 1A 02 90 4B 28 00 
90 3B 1C 0D 80 49 40 00 
80 3A 40 1D B0 40 7F 09 
80 42 40 71 90 4E 34 00 
90 3A 24 05 90 42 1E 17 
80 4B 40 00 80 3B 40 22 
80 42 40 6C B0 40 00 03 
80 4E 40 00 80 3A 40 07 
90 41 20 01 90 47 2C 00 
90 38 1E 32 80 41 40 23 
B0 40 7F 58 90 3D 23 32 
80 3D 40 1C 80 47 40 00 
80 38 40 03 90 46 31 00 
90 36 22 51 B0 40 00 00 
90 3D 21 0A 90 44 2C 00 
90 35 1E 0D 80 46 40 00 
80 36 40 26 80 3D 40 15 
B0 40 7F 5A 90 3D 29 27 
80 44 40 00 80 35 40 12 
80 3D 40 70 B0 40 00 06 
90 3D 23 02 90 46 2D 09 
90 36 2A 32 80 3D 40 26 
B0 40 7F 47 90 3D 28 04 
90 35 31 0C 80 46 40 0D 
80 36 40 18 80 3D 40 0F 
80 35 40 5D 90 33 2F 00 
90 3C 2A 04 B0 40 00 04 
90 38 20 06 90 42 2D 48 
80 38 40 04 B0 40 7F 49 
80 42 40 1A 90 38 26 03 
90 41 37 17 80 33 40 00 
80 3C 40 19 80 38 40 1D 
90 42 36 12 80 41 40 18 
B0 40 00 10 80 42 40 17 
90 31 36 00 90 3D 30 00 
90 35 29 01 90 44 3A 48 
80 35 40 08 B0 40 7F 64 
90 35 24 32 80 44 40 01 
80 35 40 0E 90 3D 3D 04 
80 31 40 3D B0 40 00 1A 
90 35 2B 03 80 3D 40 01 
90 31 37 00 90 3D 31 05 
90 44 40 39 80 35 40 04 
B0 40 7F 7A 90 35 2B 39 
80 44 40 0E 80 35 40 07 
90 3D 39 0C 80 31 40 4F 
80 3D 40 02 B0 40 00 11 
90 2A 26 00 90 3B 22 06 
90 33 1F 03 90 46 2E 65 
80 33 40 0C B0 40 7F 0B 
90 36 28 04 80 2A 40 00 
80 3B 40 01 90 42 2E 02 
80 46 40 59 80 36 40 13 
90 3F 2E 02 90 3A 33 06 
80 42 40 1D 80 3A 40 0A 
80 3F 40 40 90 31 30 00 
90 3D 2B 03 B0 40 00 04 
90 35 2F 01 90 44 35 41 
80 35 40 16 B0 40 7F 3D 
90 35 26 2D 80 44 40 0C 
80 35 40 33 80 31 40 00 
80 3D 40 03 90 3D 30 4B 
80 3D 40 15 B0 40 00 07 
90 2C 18 01 90 25 1F 09 
90 44 16 7F B0 40 7F 35 
80 2C 40 0B 90 31 28 81 
2B 90 35 28 0B 80 31 40 
5E 80 25 40 36 80 35 40 
1F 90 36 27 06 80 44 40 
16 80 36 40 72 B0 40 00 
18 90 44 26 01 90 38 25 
00 90 40 21 00 90 3D 21 
06 90 31 33 37 80 38 40 
05 B0 40 7F 73 90 38 28 
39 80 38 40 00 80 40 40 
00 80 3D 40 0D 90 3D 3A 
15 80 44 40 47 80 3D 40 
02 90 44 3F 05 90 38 2F 
3A 80 38 40 5F 90 38 31 
32 80 44 40 17 90 3D 39 
01 80 38 40 3C B0 40 00 
19 90 36 28 01 80 3D 40 
06 90 46 3F 23 B0 40 7F 
10 80 36 40 31 80 31 40 
00 90 42 3A 17 80 46 40 
1B 90 36 26 36 90 3D 40 
04 80 36 40 0A 80 42 40 
54 80 3D 40 11 B0 40 00 
02 90 47 3A 08 90 2F 29 
03 90 36 21 00 90 3F 1D 
42 80 36 40 3C B0 40 7F 
3A 90 36 21 42 80 36 40 
26 80 2F 40 16 80 47 40 
24 90 31 27 03 90 36 1D 
22 80 36 40 7F 80 31 40 
07 90 46 36 00 90 36 1B 
3A 80 36 40 09 80 46 40 
59 B0 40 00 09 90 3A 23 
00 90 3A 1E 09 90 42 2C 
02 90 33 1E 42 B0 40 7F 
0E 80 3F 40 5A 80 42 40 
05 90 3D 22 06 80 33 40 
09 90 46 34 3C 80 3D 40 
27 80 46 40 4F 90 2C 25 
02 90 3B 1D 74 80 3B 40 
00 80 3A 40 39 80 2C 40 
02 90 44 38 0D 90 42 27 
00 90 3B 22 32 80 42 40 
00 80 3B 40 04 80 44 40 
67 B0 40 00 0E 90 41 2C 
06 90 38 2B 02 90 3F 2E 
40 B0 40 7F 70 80 41 40 
11 80 3F 40 04 90 3D 2D 
3E 80 3D 40 08 80 38 40 
00 90 3B 30 1F 80 3B 40 
36 B0 40 00 1A 90 3A 22 
01 90 31 1F 00 90 2A 1D 
36 B0 40 7F 03 80 3A 40 
7B 90 3A 20 3D 80 3A 40 
4A 80 31 40 00 80 2A 40 
44 90 42 26 04 90 3A 21 
42 80 3A 40 7B 90 31 22 
5B 80 31 40 63 90 35 2E 
40 80 35 40 0E 80 42 40 
81 03 90 36 32 3A 80 36 
40 81 45 90 46 34 00 90 
36 24 05 90 42 24 00 B0 
40 00 43 80 42 40 18 B0 
40 7F 59 90 42 2A 3A 80 
42 40 03 80 46 40 00 80 
36 40 03 90 47 3C 00 90 
38 2A 31 B0 40 00 1B 90 
42 26 16 90 49 36 00 90 
3A 25 1A 80 47 40 00 80 
38 40 0B B0 40 7F 0A 80 
42 40 76 90 42 2C 40 80 
42 40 57 B0 40 00 10 90 
42 28 02 90 4B 40 00 90 
3B 2C 19 80 49 40 00 80 
3A 40 23 80 42 40 38 B0 
40 7F 33 90 42 2C 08 90 
4E 3E 00 90 3A 2B 02 80 
4B 40 00 80 3B 40 2D 80 
42 40 56 B0 40 00 1A 90 
41 25 08 90 47 38 00 90 
38 27 08 80 4E 40 00 80 
3A 40 30 80 41 40 4E B0 
40 7F 1F 90 3D 23 35 80 
3D 40 1A 90 46 36 00 90 
36 25 0C 80 47 40 00 80 
38 40 25 B0 40 00 1F 90 
3D 23 03 90 44 2B 00 90 
35 1E 04 80 46 40 00 80 
36 40 35 80 3D 40 43 B0 
40 7F 2D 90 3D 27 3D 80 
44 40 00 80 35 40 01 80 
3D 40 63 90 46 29 05 B0 
40 00 03 90 36 28 06 90 
3D 1E 2E 80 3D 40 41 B0 
40 7F 2F 80 46 40 0B 90 
3D 22 04 90 35 20 06 80 
36 40 1B 80 3D 40 06 80 
35 40 81 09 90 33 1C 00 
90 3C 19 07 B0 40 00 01 
90 38 19 00 90 42 24 31 
80 38 40 4F 80 42 40 19 
B0 40 7F 18 90 41 33 01 
90 38 1D 0C 80 33 40 00 
80 3C 40 1B 80 38 40 2C 
90 42 31 04 80 41 40 2E 
B0 40 00 03 80 42 40 19 
90 44 3A 01 90 31 2F 00 
90 3D 2A 03 90 35 26 47 
80 35 40 33 B0 40 7F 36 
90 35 2B 2B 80 44 40 08 
80 35 40 0B 90 3D 3C 01 
80 31 40 41 B0 40 00 11 
80 3D 40 09 90 35 2C 01 
90 31 35 00 90 3D 2F 00 
90 44 3D 42 80 35 40 2E 
B0 40 7F 33 90 35 28 36 
80 44 40 08 80 35 40 16 
80 31 40 00 80 3D 40 05 
90 3D 2C 42 80 3D 40 0A 
B0 40 00 16 90 33 1E 02 
90 2A 22 00 90 3B 1E 02 
90 46 2E 58 80 33 40 1E 
80 46 40 02 90 36 20 08 
B0 40 7F 00 90 42 27 03 
80 2A 40 00 80 3B 40 43 
80 36 40 1D 80 42 40 06 
90 3A 1D 04 90 3F 2C 23 
80 3A 40 14 80 3F 40 30 
B0 40 00 09 90 44 36 01 
90 31 28 00 90 3D 24 01 
90 35 27 43 80 35 40 43 
B0 40 7F 2F 90 35 2F 28 
80 44 40 10 80 35 40 16 
80 31 40 00 80 3D 40 00 
90 3D 31 53 80 3D 40 26 
90 44 23 03 B0 40 00 08 
90 2C 23 02 90 25 1D 81 
41 80 25 40 01 90 31 28 
0C B0 40 7F 81 2B 90 35 
2B 0D 80 31 40 81 0A 80 
35 40 0B 80 44 40 00 90 
36 37 19 80 2C 40 24 80 
36 40 60 B0 40 00 1A 90 
44 41 01 90 31 2F 01 90 
38 25 00 90 40 21 00 90 
3D 21 22 80 38 40 5B B0 
40 7F 2D 90 38 2E 33 80 
44 40 09 80 38 40 00 80 
40 40 00 80 3D 40 02 90 
3D 3C 4C B0 40 00 0F 90 
38 34 08 90 44 47 0A 80 
3D 40 30 B0 40 7F 03 80 
38 40 59 90 38 30 2D 80 
44 40 10 80 38 40 0B 90 
3D 3D 53 80 3D 40 03 B0 
40 00 0C 90 46 35 02 90 
36 2A 36 80 36 40 34 80 
46 40 04 90 42 33 05 B0 
40 7F 28 80 31 40 17 90 
36 26 1E 80 42 40 01 90 
3D 31 1D 80 36 40 3D 80 
3D 40 21 B0 40 00 08 90 
36 1F 00 90 3F 1B 01 90 
47 20 05 90 2F 20 3C 80 
36 40 41 B0 40 7F 3E 90 
36 18 29 80 36 40 7B 80 
47 40 08 90 31 2A 03 90 
36 16 20 80 2F 40 06 80 
36 40 81 00 80 31 40 03 
90 46 3F 04 90 36 1C 2B 
80 36 40 0C 80 46 40 52 
B0 40 00 1D 90 3A 24 00 
90 3A 1F 08 90 42 2C 04 
90 33 1F 45 B0 40 7F 06 
80 3F 40 52 80 33 40 0D 
90 3D 22 01 80 42 40 0B 
90 46 3A 4D 80 3D 40 5C 
90 3B 1D 06 90 2C 20 0C 
80 46 40 81 1A 80 3B 40 
00 80 3A 40 09 90 44 36 
02 90 42 20 00 90 3B 1C 
03 80 2C 40 23 80 42 40 
00 80 3B 40 12 80 44 40 
63 B0 40 00 10 90 38 25 
04 90 41 26 01 90 3F 1D 
46 B0 40 7F 6A 80 3F 40 
04 80 41 40 04 90 3D 2C 
1D 80 38 40 2C 80 3D 40 
3F B0 40 00 15 90 3A 20 
04 90 31 22 00 90 2A 20 
4F 80 3A 40 31 B0 40 7F 
49 90 3A 1B 3A 80 31 40 
00 80 2A 40 81 00 90 42 
25 81 0A 80 3A 40 40 90 
3D 26 15 80 42 40 7E 80 
3D 40 30 90 41 1D 43 80 
41 40 81 09 90 42 1B 2B 
80 42 40 81 06 B0 40 00 
15 90 4D 1E 00 90 41 1B 
00 90 55 39 07 90 49 1F 
00 90 47 1B 00 90 44 1B 
44 80 4D 40 00 80 41 40 
07 80 49 40 00 80 47 40 
00 80 44 40 03 B0 40 7F 
63 90 49 1F 00 90 47 1B 
00 90 44 1B 05 90 4D 1B 
00 90 41 18 1D 80 55 40 
09 80 4D 40 00 80 41 40 
08 80 49 40 00 80 47 40 
00 80 44 40 04 90 50 31 
52 80 50 40 04 B0 40 00 
0A 90 55 3A 0A 90 4B 20 
00 90 3F 1C 0B 90 49 21 
00 90 47 1D 00 90 44 1D 
24 80 49 40 00 80 47 40 
00 80 44 40 08 80 4B 40 
00 80 3F 40 0B B0 40 7F 
5A 90 4B 1D 00 90 3F 1A 
0A 90 49 1A 00 90 47 17 
00 90 44 17 1A 80 55 40 
1D 80 49 40 00 80 47 40 
00 80 44 40 04 90 50 31 
02 80 4B 40 00 80 3F 40 
3C B0 40 00 1D B0 40 7F 
01 90 57 3D 04 80 50 40 
05 90 4D 1D 00 90 41 1A 
0A 90 49 15 00 90 47 12 
00 90 44 12 1F 80 49 40 
00 80 47 40 00 80 44 40 
07 80 4D 40 00 80 41 40 
30 90 53 35 13 80 57 40 
22 90 4D 1F 00 90 41 1B 
01 90 49 1E 00 90 47 1B 
00 90 44 1B 2B 80 53 40 
06 90 50 37 02 80 4D 40 
00 80 41 40 01 80 49 40 
00 80 47 40 00 80 44 40 
4D 80 50 40 15 90 55 39 
00 90 4B 23 00 90 3F 1F 
03 B0 40 00 05 90 49 20 
00 90 47 1C 00 90 44 1C 
48 80 4B 40 00 80 3F 40 
01 80 49 40 00 80 47 40 
00 80 44 40 03 B0 40 7F 
59 90 4B 1A 00 90 3F 17 
07 90 49 1A 00 90 47 17 
00 90 44 17 33 80 49 40 
00 80 47 40 00 80 44 40 
03 80 4B 40 00 80 3F 40 
05 80 55 40 08 90 50 2D 
49 80 50 40 04 B0 40 00 
0F 90 55 30 06 90 4D 1F 
00 90 41 1B 07 90 49 1B 
00 90 47 18 00 90 44 18 
38 80 4D 40 00 80 41 40 
01 80 49 40 00 80 47 40 
00 80 44 40 23 B0 40 7F 
44 90 4D 20 00 90 41 1C 
04 90 49 1B 00 90 47 18 
00 90 44 18 3C 80 49 40 
00 80 47 40 00 80 44 40 
01 80 4D 40 00 80 41 40 
71 90 4B 20 00 90 3F 1C 
0F 90 49 1F 00 90 47 1B 
00 90 44 1B 28 80 49 40 
00 80 47 40 00 80 44 40 
05 80 4B 40 00 80 3F 40 
6E 90 4B 21 00 90 3F 1D 
03 90 49 1E 00 90 47 1B 
00 90 44 1B 3A 80 49 40 
00 80 47 40 00 80 44 40 
07 80 4B 40 00 80 3F 40 
23 80 55 40 43 90 4D 1E 
04 90 49 1E 00 90 47 1B 
00 90 41 1B 2C 80 4D 40 
06 80 49 40 00 80 47 40 
00 80 41 40 50 B0 40 00 
14 90 4D 1C 05 90 49 1C 
00 90 47 19 00 90 41 19 
06 90 2C 2B 02 90 25 1C 
35 80 4D 40 0C 80 49 40 
00 80 47 40 00 80 41 40 
03 B0 40 7F 67 90 4B 1E 
03 90 49 21 00 90 47 1D 
00 90 3F 1D 1F 80 25 40 
0E 80 4B 40 04 80 49 40 
00 80 47 40 00 80 3F 40 
04 80 2C 40 6F 90 4B 1F 
04 90 49 1B 00 90 47 18 
00 90 3F 18 0B 90 31 24 
01 90 38 28 1D 80 4B 40 
06 80 49 40 00 80 47 40 
00 80 3F 40 06 80 31 40 
07 80 38 40 6D 90 4D 1F 
04 90 49 1E 00 90 47 1B 
00 90 41 1B 0D 90 44 2E 
04 90 3D 20 1A B0 40 00 
0A 80 4D 40 03 80 49 40 
00 80 47 40 00 80 41 40 
58 90 4D 27 07 90 49 1D 
00 90 47 1A 00 90 41 1A 
24 B0 40 7F 19 80 4D 40 
0F 80 49 40 00 80 47 40 
00 80 41 40 63 90 4B 24 
03 90 49 23 00 90 47 1F 
00 90 3F 1F 26 80 4B 40 
0A 80 49 40 00 80 47 40 
00 80 3F 40 73 90 4B 1D 
00 90 49 1E 00 90 47 1B 
00 90 3F 1B 2A 80 4B 40 
06 80 49 40 00 80 47 40 
00 80 3F 40 81 01 90 4D 
1B 09 90 49 19 00 90 47 
16 00 90 41 16 28 80 4D 
40 01 80 49 40 00 80 47 
40 00 80 41 40 7A 90 4D 
21 0B 90 49 1B 00 90 47 
18 00 90 41 18 20 80 49 
40 00 80 47 40 00 80 41 
40 08 80 4D 40 81 05 90 
4B 1A 08 90 49 19 00 90 
47 16 00 90 3F 16 21 80 
49 40 00 80 47 40 00 80 
3F 40 02 80 4B 40 08 80 
3D 40 15 80 44 40 69 90 
4B 18 05 90 49 19 00 90 
47 16 00 90 3F 16 1F 80 
4B 40 01 80 49 40 00 80 
47 40 00 80 3F 40 77 B0 
40 00 07 90 4C 1F 00 90 
40 1B 07 90 49 1D 00 90 
47 1A 00 90 44 1A 00 90 
55 36 3E 80 49 40 00 80 
47 40 00 80 44 40 01 B0 
40 7F 03 80 4C 40 00 80 
40 40 66 90 4C 20 00 90 
40 1C 0D 90 49 1F 00 90 
47 1B 00 90 44 1B 1F 80 
49 40 00 80 47 40 00 80 
44 40 10 80 4C 40 00 80 
40 40 28 80 55 40 15 90 
50 38 54 90 49 25 00 90 
47 21 00 90 44 21 04 90 
4B 1E 00 90 3F 1B 06 80 
50 40 04 90 55 35 0C B0 
40 00 26 B0 40 7F 02 80 
4B 40 00 80 3F 40 00 80 
49 40 00 80 47 40 00 80 
44 40 68 90 4B 21 00 90 
3F 1D 06 90 49 25 00 90 
47 21 00 90 44 21 2F 80 
55 40 08 80 4B 40 00 80 
3F 40 00 80 49 40 00 80 
47 40 00 80 44 40 0D 90 
50 3A 33 B0 40 00 1C 80 
50 40 0A 90 57 3A 03 90 
4C 20 00 90 40 1C 04 90 
49 1D 00 90 47 1A 00 90 
44 1A 0C B0 40 7F 21 80 
4C 40 00 80 40 40 03 80 
49 40 00 80 47 40 00 80 
44 40 36 90 53 42 15 80 
57 40 1A 90 4C 28 00 90 
40 24 02 90 49 20 00 90 
47 1C 00 90 44 1C 2F 80 
4C 40 00 80 40 40 03 80 
49 40 00 80 47 40 00 80 
44 40 02 90 50 3B 06 80 
53 40 63 80 50 40 01 90 
4B 22 00 90 3F 1E 01 90 
55 40 09 B0 40 00 05 90 
49 24 00 90 47 20 00 90 
44 20 30 80 49 40 00 80 
47 40 00 80 44 40 03 80 
4B 40 00 80 3F 40 24 B0 
40 7F 3D 90 4B 24 00 90 
3F 20 0C 90 49 1E 00 90 
47 1B 00 90 44 1B 20 80 
49 40 00 80 47 40 00 80 
44 40 11 80 4B 40 00 80 
3F 40 08 80 55 40 0B 90 
50 30 45 80 50 40 1E 90 
55 35 01 90 49 19 00 90 
47 16 00 90 44 16 06 90 
4C 1A 00 90 40 17 2B 80 
4C 40 00 80 40 40 05 80 
49 40 00 80 47 40 00 80 
44 40 71 90 4C 23 00 90 
40 1F 05 90 49 1F 00 90 
47 1B 00 90 44 1B 27 80 
4C 40 00 80 40 40 06 80 
49 40 00 80 47 40 00 80 
44 40 4F B0 40 00 2A 90 
4B 20 00 90 3F 1C 13 90 
49 1E 00 90 47 1B 00 90 
44 1B 15 B0 40 7F 0E 80 
49 40 00 80 47 40 00 80 
44 40 0D 80 4B 40 00 80 
3F 40 6A 90 4B 20 00 90 
3F 1C 0B 90 49 1E 00 90 
47 1B 00 90 44 1B 28 80 
49 40 00 80 47 40 00 80 
44 40 09 80 4B 40 00 80 
3F 40 73 90 4C 23 08 90 
49 1B 00 90 47 18 00 90 
40 18 01 80 55 40 28 80 
4C 40 04 80 49 40 00 80 
47 40 00 80 40 40 64 B0 
40 00 1A 90 2C 22 04 90 
49 19 00 90 47 16 00 90 
40 16 01 90 4C 14 06 90 
25 1E 29 80 4C 40 06 80 
49 40 00 80 47 40 00 80 
40 40 02 B0 40 7F 81 00 
90 4B 1F 07 90 49 1F 00 
90 47 1B 00 90 3F 1B 0C 
80 25 40 0C 80 2C 40 13 
80 4B 40 06 80 49 40 00 
80 47 40 00 80 3F 40 72 
B0 40 00 0F 90 4B 18 05 
90 49 19 00 90 47 16 00 
90 3F 16 04 90 31 1C 00 
90 38 22 13 B0 40 7F 17 
80 4B 40 05 80 49 40 00 
80 47 40 00 80 3F 40 02 
80 31 40 0D 80 38 40 7D 
B0 40 00 01 90 4C 18 02 
90 49 19 00 90 47 16 00 
90 40 16 08 90 44 23 07 
90 3D 1D 35 80 4C 40 01 
B0 40 7F 03 80 49 40 00 
80 47 40 00 80 40 40 18 
80 3D 40 63 90 4C 16 03 
90 49 19 00 90 47 16 00 
90 40 16 2F 80 4C 40 06 
80 49 40 00 80 47 40 00 
80 40 40 81 00 90 4B 1E 
03 90 49 1E 00 90 47 1B 
00 90 3F 1B 3C 80 4B 40 
09 80 49 40 00 80 47 40 
00 80 3F 40 81 00 90 4B 
22 07 90 49 22 00 90 47 
1E 00 90 3F 1E 38 80 4B 
40 07 80 49 40 00 80 47 
40 00 80 3F 40 81 0A 90 
4B 1F 05 90 47 20 00 90 
45 1C 00 90 3F 1C 40 80 
4B 40 0F 80 47 40 00 80 
45 40 00 80 3F 40 78 B0 
40 00 14 90 42 1F 01 90 
47 1A 00 90 45 17 00 90 
3F 17 01 90 4B 18 4A B0 
40 7F 03 80 4B 40 0A 80 
47 40 00 80 45 40 00 80 
3F 40 81 22 90 49 18 03 
90 45 1A 00 90 43 17 00 
90 3D 17 2F 80 49 40 0D 
80 45 40 00 80 43 40 00 
80 3D 40 2D 80 42 40 13 
80 44 40 81 0C 90 45 15 
00 90 43 12 00 90 3D 12 
07 90 49 1B 08 90 40 20 
2C 80 45 40 00 80 43 40 
00 80 3D 40 12 80 49 40 
02 80 40 40 81 50 B0 40 
00 0E 90 3A 19 09 90 31 
1F 00 90 2A 1D 01 90 44 
22 01 90 42 28 47 B0 40 
7F 81 02 80 44 40 01 90 
3A 23 10 80 42 40 1A 80 
31 40 00 80 2A 40 23 80 
3A 40 04 90 3D 2E 30 80 
3D 40 2B B0 40 00 07 90 
46 2C 03 90 3A 1F 02 90 
42 24 02 90 31 22 00 90 
2A 20 5B B0 40 7F 58 90 
3A 20 0B 80 42 40 11 80 
46 40 14 80 31 40 00 80 
2A 40 10 80 3A 40 15 90 
3D 27 38 80 3D 40 24 90 
42 2E 02 90 3A 22 00 90 
41 1F 02 B0 40 00 09 90 
2E 21 00 90 27 1F 36 B0 
40 7F 14 80 3A 40 05 80 
2E 40 00 80 27 40 13 90 
3F 3C 1F 80 41 40 13 80 
42 40 08 90 3A 2D 33 90 
3A 40 0A 80 3F 40 48 B0 
40 00 05 80 3A 40 11 90 
44 36 02 90 42 32 03 90 
3A 24 07 90 31 26 00 90 
2A 24 56 B0 40 7F 3D 90 
3A 2C 08 80 42 40 09 80 
44 40 1D 80 31 40 00 80 
2A 40 1B 90 3D 39 06 80 
3A 40 39 80 3D 40 1C B0 
40 00 04 90 3A 22 06 90 
46 2B 01 90 42 31 05 90 
31 23 00 90 2A 21 34 B0 
40 7F 6B 80 46 40 06 80 
3A 40 08 90 3A 24 04 80 
42 40 10 80 31 40 00 80 
2A 40 28 80 3A 40 0A 90 
3D 2E 35 80 3D 40 2B 90 
42 26 04 90 3A 23 0B 90 
2E 1E 00 90 27 1C 03 90 
41 30 37 80 2E 40 00 80 
27 40 0D 80 3A 40 17 80 
42 40 07 90 3F 36 17 80 
41 40 23 90 3A 29 29 80 
3F 40 06 90 3A 33 3D 80 
3A 40 23 B0 40 00 1A 90 
44 28 02 90 42 22 00 90 
3F 1E 00 90 3B 1E 05 90 
23 31 27 B0 40 7F 2D 80 
44 40 0B 80 42 40 00 80 
3F 40 00 80 3B 40 57 90 
42 24 00 90 3F 20 00 90 
3B 20 03 90 44 26 3C 80 
44 40 0D 80 42 40 00 80 
3F 40 00 80 3B 40 6B 90 
44 2B 02 90 42 2E 00 90 
3F 29 00 90 3B 29 3E 80 
44 40 0F 80 42 40 00 80 
3F 40 00 80 3B 40 21 80 
23 40 3B 90 44 1F 01 90 
42 22 00 90 3F 1E 00 90 
3B 1E 05 90 2F 31 05 90 
36 23 2C 80 44 40 0B 80 
2F 40 03 80 42 40 00 80 
3F 40 00 80 3B 40 0C 80 
36 40 55 90 42 2B 00 90 
3F 26 00 90 3B 26 02 90 
44 23 0B 90 3A 36 31 80 
44 40 0C 80 42 40 00 80 
3F 40 00 80 3B 40 07 80 
3A 40 5C 90 44 2E 02 90 
42 32 00 90 3F 2D 00 90 
3B 2D 0E 90 2F 2C 01 90 
36 3B 2B 80 2F 40 02 80 
44 40 05 80 36 40 05 80 
42 40 00 80 3F 40 00 80 
3B 40 78 90 42 38 00 90 
3F 32 00 90 3B 32 01 90 
44 36 01 90 38 3F 36 80 
44 40 10 80 42 40 00 80 
3F 40 00 80 3B 40 15 80 
38 40 50 90 44 3F 00 90 
42 38 00 90 3F 38 01 90 
47 3E 3C 80 47 40 0C 80 
44 40 00 80 42 40 00 80 
3F 40 5C 90 4B 3E 05 90 
47 3B 00 90 44 35 00 90 
42 35 38 90 3B 3A 09 80 
4B 40 09 80 47 40 00 80 
44 40 00 80 42 40 44 B0 
40 00 07 90 3F 3E 05 90 
4E 2F 02 90 4B 2F 00 90 
47 2A 00 90 44 2A 10 80 
3B 40 16 B0 40 7F 1E 80 
4E 40 05 90 42 46 07 80 
4B 40 00 80 47 40 00 80 
44 40 36 80 3F 40 0F B0 
40 00 12 90 50 31 03 90 
4E 31 00 90 4B 2C 00 90 
47 2C 02 90 44 44 0A B0 
40 7F 0D 80 42 40 2A 80 
50 40 0F 80 4E 40 00 80 
4B 40 00 80 47 40 65 90 
52 2E 01 90 4E 2E 00 90 
4B 29 00 90 47 29 02 90 
3B 44 04 B0 40 00 07 80 
44 40 07 B0 40 7F 24 80 
52 40 14 80 4E 40 00 80 
4B 40 00 80 47 40 10 90 
46 4A 0E 80 3B 40 4C 90 
53 37 01 90 4E 33 00 90 
4B 2D 00 90 47 2D 01 B0 
40 00 08 90 44 4B 12 80 
46 40 29 B0 40 7F 0E 80 
53 40 0F 80 4E 40 00 80 
4B 40 00 80 47 40 5F 90 
4E 32 00 90 4B 2D 00 90 
47 2D 01 90 53 33 3E 80 
53 40 0F 80 4E 40 00 80 
4B 40 00 80 47 40 76 90 
53 3B 04 90 4E 32 00 90 
4B 2D 00 90 47 2D 2B 80 
53 40 10 80 4E 40 00 80 
4B 40 00 80 47 40 81 10 
90 4E 2D 00 90 4B 28 00 
90 47 28 04 90 53 26 27 
80 53 40 13 80 4E 40 00 
80 4B 40 00 80 47 40 81 
03 B0 40 00 08 90 55 1F 
0E 90 53 2F 00 90 4E 2A 
00 90 4B 2A 02 90 42 39 
0C 80 44 40 24 B0 40 7F 
2B 80 55 40 04 80 53 40 
00 80 4E 40 00 80 4B 40 
81 3F 90 57 21 06 90 53 
27 00 90 4E 23 00 90 4B 
23 6A 80 42 40 52 80 53 
40 00 80 4E 40 00 80 4B 
40 20 80 57 40 81 2B 90 
2F 28 81 6E 90 4B 37 00 
80 2F 40 3D 80 4B 40 81 
08 B0 40 00 16 90 38 19 
02 90 33 1E 03 90 3B 18 
02 90 42 27 3A B0 40 7F 
06 80 3B 40 06 80 38 40 
7C 90 3B 19 04 90 38 1F 
36 80 33 40 06 80 3B 40 
04 80 42 40 04 80 38 40 
81 15 90 3D 18 00 90 38 
1F 03 90 31 23 03 90 41 
31 2F 80 3D 40 0A 80 38 
40 48 80 31 40 2C 90 2F 
39 03 80 41 40 07 90 3D 
1E 00 90 38 21 27 80 2F 
40 06 80 3D 40 0B 80 38 
40 7A B0 40 00 12 90 2E 
22 02 90 38 1B 00 90 44 
34 05 90 3D 14 42 80 3D 
40 05 B0 40 7F 07 80 38 
40 81 06 90 3D 18 02 90 
38 1B 34 80 3D 40 0D 80 
38 40 72 80 44 40 0A 90 
3A 20 0B 90 3D 18 03 90 
38 1A 15 80 2E 40 1C 80 
3D 40 09 80 38 40 0E 80 
3A 40 81 01 90 42 2A 04 
90 36 1E 01 90 3D 18 20 
80 42 40 11 80 3D 40 05 
80 36 40 81 0A B0 40 00 
1E 90 42 1F 02 90 47 31 
03 90 33 22 42 80 42 40 
04 80 33 40 07 80 47 40 
1C B0 40 7F 4B 90 44 27 
09 90 49 42 04 90 35 2A 
34 80 44 40 03 80 35 40 
0E 80 49 40 65 90 3D 32 
09 90 36 36 01 90 46 39 
35 80 3D 40 02 80 36 40 
0E 80 46 40 6D B0 40 00 
10 90 42 37 03 90 33 30 
01 90 3D 2D 0E B0 40 7F 
2A 80 42 40 05 80 3D 40 
01 80 33 40 81 0D 90 49 
2E 02 90 38 2C 00 90 31 
27 01 90 3D 24 00 B0 40 
00 03 90 42 39 4B 80 3D 
40 08 B0 40 7F 7D 90 3D 
25 38 80 3D 40 40 80 42 
40 10 80 38 40 00 80 31 
40 01 80 49 40 4A 90 3D 
2A 14 90 41 21 17 80 41 
40 03 80 3D 40 81 22 90 
42 2D 00 90 42 2D 02 90 
41 28 00 90 3B 24 00 90 
3F 26 3F 80 41 40 00 80 
3B 40 00 80 3F 40 6F B0 
40 00 0C 90 3D 21 04 90 
3A 26 02 90 46 37 40 B0 
40 7F 0E 80 3A 40 11 80 
3D 40 00 80 42 40 55 90 
3F 1F 00 90 3B 1D 00 90 
38 1C 00 90 42 1F 00 90 
42 1F 3D 80 46 40 01 80 
3F 40 00 80 3B 40 00 80 
38 40 0C 90 47 39 3B B0 
40 00 1D 80 47 40 06 90 
3D 1D 01 90 49 2B 0B 90 
3A 25 00 90 36 23 23 B0 
40 7F 0F 80 3D 40 00 80 
42 40 17 80 3A 40 00 80 
36 40 5F 90 46 32 81 04 
80 49 40 16 90 4B 37 00 
90 3F 2C 00 90 3B 29 27 
B0 40 00 14 80 46 40 12 
90 44 30 3B 80 44 40 11 
90 42 2F 27 90 4E 39 03 
80 4B 40 1F 80 42 40 07 
90 41 27 4C 80 41 40 12 
90 3F 28 07 80 4E 40 00 
80 3B 40 0E 90 47 30 00 
90 38 26 81 20 80 3F 40 
0E 90 41 20 50 80 41 40 
0A 90 42 2D 01 80 47 40 
00 80 38 40 04 90 46 31 
00 90 36 27 3F 80 42 40 
12 80 46 40 00 80 36 40 
09 90 44 33 00 90 35 28 
30 B0 40 7F 7B 90 44 33 
0B 80 35 40 81 1A 90 46 
3B 00 90 3D 2F 00 90 36 
2C 0B 80 44 40 42 80 46 
40 00 80 3D 40 00 80 36 
40 0D 90 42 23 3D 80 42 
40 19 90 41 23 52 80 41 
40 0B 90 3F 20 26 B0 40 
00 02 90 42 28 10 80 3F 
40 02 90 44 3C 0F 90 3D 
2F 00 90 33 2A 00 90 38 
29 03 80 42 40 08 90 42 
36 12 80 44 40 81 13 B0 
40 7F 0E 80 42 40 0C 90 
41 33 1F 80 3D 40 22 80 
41 40 0B 80 33 40 00 80 
38 40 00 90 42 2C 35 80 
42 40 17 B0 40 00 19 90 
35 27 01 90 44 37 4A B0 
40 7F 01 80 35 40 6E 90 
35 27 39 80 35 40 02 80 
44 40 1F 90 3D 28 24 80 
3D 40 37 90 44 2E 01 90 
35 28 09 90 3D 2D 2E 80 
35 40 6C 80 3D 40 0D 90 
35 2A 44 80 44 40 02 80 
35 40 05 90 3D 33 47 B0 
40 00 09 80 3D 40 17 90 
2F 32 0A 90 2A 30 00 90 
3B 2B 01 90 46 3E 5B B0 
40 7F 05 80 2F 40 01 90 
33 27 35 80 46 40 08 90 
42 3A 17 90 36 2F 07 80 
33 40 25 80 2A 40 00 80 
3B 40 20 90 3A 37 05 90 
3F 3E 01 80 36 40 05 80 
42 40 3F B0 40 00 1F 90 
35 37 01 80 3A 40 04 80 
3F 40 05 90 44 3E 01 90 
31 33 00 90 3D 2D 31 B0 
40 7F 2A 80 35 40 55 90 
35 3A 32 80 44 40 0C 80 
35 40 0E 90 3D 36 0E 80 
31 40 46 80 3D 40 29 90 
44 2D 09 90 25 24 00 90 
2C 24 04 B0 40 00 6F B0 
40 7F 49 80 25 40 00 80 
2C 40 03 90 31 21 81 2A 
80 31 40 04 90 35 24 81 
2C 80 35 40 22 90 36 20 
09 80 44 40 30 80 36 40 
6F B0 40 00 1A 90 38 1F 
08 90 44 20 07 90 3D 2A 
00 90 40 2B 00 90 31 30 
24 B0 40 7F 11 80 38 40 
71 90 38 20 21 80 3D 40 
00 80 40 40 25 90 3D 3F 
1A 80 44 40 43 80 3D 40 
0B 80 38 40 02 90 44 45 
02 90 3D 2F 0C 90 3D 0D 
3D 80 31 40 0E 80 3D 40 
41 90 3B 34 3D 80 44 40 
09 80 3B 40 06 90 3D 36 
4F 80 3D 40 0D 90 3A 2B 
10 90 46 3F 01 90 2A 35 
00 90 3D 2F 16 B0 40 00 
17 80 3A 40 31 B0 40 7F 
01 90 42 3A 15 80 46 40 
2B 90 38 31 0E 80 2A 40 
00 80 3D 40 21 90 3D 40 
12 80 42 40 06 80 38 40 
4B B0 40 00 04 80 3D 40 
08 90 47 40 04 90 2F 2F 
00 90 3F 2A 00 90 36 2D 
4B B0 40 7F 04 80 36 40 
62 90 36 2D 81 30 90 3B 
2E 25 80 36 40 15 80 47 
40 44 80 3B 40 35 80 2F 
40 00 80 3F 40 07 90 46 
30 08 90 3A 2D 20 80 46 
40 60 B0 40 00 2D 90 42 
35 03 90 2C 20 00 90 3B 
1C 00 90 3F 1C 3A B0 40 
7F 6E 80 3A 40 0D 80 42 
40 10 90 38 25 05 90 46 
38 12 80 2C 40 00 80 3B 
40 00 80 3F 40 27 80 38 
40 22 90 36 28 01 80 46 
40 3C 80 36 40 19 B0 40 
00 0C 90 34 1F 18 90 31 
2C 00 90 3B 27 33 B0 40 
7F 81 0D 80 34 40 0A 80 
31 40 00 80 3B 40 0D 90 
35 27 01 90 44 35 15 80 
44 40 1D 80 35 40 81 2E 
B0 40 00 0C 90 25 20 08 
90 41 21 01 90 3F 29 00 
90 3B 26 54 B0 40 7F 72 
80 41 40 29 80 3F 40 00 
80 3B 40 2A 90 3D 20 00 
90 3A 1E 44 80 3D 40 00 
80 3A 40 43 80 25 40 00 
90 3B 28 00 90 38 26 25 
80 3B 40 00 80 38 40 66 
B0 40 00 11 90 41 23 01 
90 3A 1B 00 90 36 19 02 
90 31 1D 00 90 2A 1A 47 
B0 40 7F 11 80 31 40 81 
3E 90 31 1D 47 80 31 40 
81 4C 80 41 40 20 90 31 
16 08 90 42 27 56 80 31 
40 1C 80 3A 40 00 80 36 
40 81 75 90 31 16 54 80 
31 40 82 39 90 31 13 82 
06 80 42 40 56 80 31 40 
00 80 2A 40 82 4C B0 40 
00 3A 90 4E 58 03 90 4D 
42 02 90 4A 38 00 90 47 
35 26 B0 40 7F 2E 80 4D 
40 18 80 4A 40 00 80 47 
40 41 90 49 3E 01 90 45 
46 19 80 4E 40 0E 80 45 
40 07 80 49 40 1D B0 40 
00 5D 90 4E 53 08 90 4A 
42 02 90 47 34 00 90 44 
31 11 B0 40 7F 40 80 4A 
40 0E 80 47 40 00 80 44 
40 46 90 49 3B 07 90 45 
3F 00 90 42 3B 13 80 4E 
40 81 07 90 51 4D 15 80 
45 40 00 80 42 40 09 80 
49 40 6C B0 40 00 15 90 
45 2B 00 90 3B 28 03 90 
4A 32 2B B0 40 7F 0A 80 
4A 40 05 80 45 40 00 80 
3B 40 06 90 50 42 11 80 
51 40 4B 90 4A 36 02 90 
4E 40 00 90 44 2C 00 90 
40 29 08 80 50 40 26 80 
4A 40 01 80 44 40 00 80 
40 40 11 80 4E 40 02 90 
4C 41 47 80 4C 40 10 90 
4E 42 03 90 49 3A 04 90 
45 2C 00 90 36 29 22 80 
49 40 0B 80 45 40 00 80 
36 40 15 80 4E 40 06 90 
50 47 49 90 51 3F 04 80 
50 40 0B 90 42 3A 00 90 
42 3A 02 90 41 2E 00 90 
3E 2B 00 90 3B 2A 3B 80 
41 40 00 80 3E 40 00 80 
3B 40 01 90 53 48 23 80 
51 40 2B 90 55 40 08 80 
53 40 01 90 3D 2D 03 90 
39 2C 04 B0 40 00 18 80 
55 40 01 80 39 40 07 80 
3D 40 00 80 42 40 49 B0 
40 7F 2F 90 55 38 03 90 
42 2C 00 90 42 2C 03 90 
3E 20 00 90 3B 1E 00 90 
38 1D 33 80 3E 40 00 80 
3B 40 00 80 38 40 6A 90 
3D 27 0C 90 39 20 00 90 
36 1E 1E 80 3D 40 00 80 
42 40 01 80 39 40 00 80 
36 40 14 80 55 40 10 90 
51 37 50 80 51 40 04 90 
45 2A 02 90 4E 30 17 B0 
40 00 23 80 4E 40 0F 90 
49 32 47 80 49 40 09 90 
4A 2B 00 90 3B 20 00 90 
3E 20 31 80 45 40 16 90 
44 25 36 80 44 40 19 90 
42 28 48 80 42 40 06 90 
40 24 41 80 40 40 05 90 
42 2E 33 80 4A 40 00 80 
3B 40 00 80 3E 40 1A 90 
4C 2E 50 80 42 40 02 80 
4C 40 05 90 44 22 01 90 
4E 2E 4A 90 50 30 0C 80 
4E 40 3F 80 50 40 06 90 
53 25 00 90 34 1B 00 90 
3E 1B 56 80 53 40 01 90 
50 30 41 80 44 40 08 80 
50 40 04 90 4C 2D 07 90 
44 20 26 80 4C 40 14 90 
47 25 58 80 47 40 00 80 
34 40 00 80 3E 40 01 90 
49 28 00 90 39 1E 00 90 
3D 1E 22 B0 40 7F 2B 80 
44 40 11 90 42 2F 38 80 
42 40 10 90 40 25 49 90 
3E 26 02 80 40 40 49 80 
3E 40 01 90 40 37 35 80 
49 40 00 80 39 40 00 80 
3D 40 10 90 4A 39 3F B0 
40 00 18 90 4C 31 07 90 
42 1E 00 80 4A 40 03 80 
40 40 45 90 4E 3C 1A 80 
4C 40 2F 80 4E 40 0D 90 
51 24 00 90 32 1B 00 90 
3D 1B 42 90 4E 27 05 80 
51 40 4D 80 4E 40 06 90 
4A 2C 01 80 42 40 18 90 
42 1F 1F 80 4A 40 17 90 
45 2A 3E B0 40 7F 11 80 
45 40 00 80 32 40 00 80 
3D 40 07 90 47 30 00 90 
38 24 00 90 3B 24 3D 80 
42 40 18 90 40 33 33 80 
40 40 0E 90 3E 2D 42 90 
3D 27 09 80 3E 40 40 90 
3E 39 07 80 3D 40 38 80 
47 40 00 80 38 40 00 80 
3B 40 0F 80 3E 40 0A 90 
44 40 49 90 3E 3A 04 90 
32 36 00 90 42 2D 00 90 
3D 2D 00 90 45 44 04 80 
44 40 25 80 3E 40 06 80 
32 40 00 80 42 40 00 80 
3D 40 1B 90 47 46 18 B0 
40 00 0D 80 45 40 2E 90 
34 3E 01 90 28 3B 00 90 
44 32 00 90 3D 32 02 90 
49 44 1D 80 47 40 2A 90 
47 42 07 80 49 40 1C B0 
40 7F 2E 90 49 44 0E 80 
47 40 06 80 34 40 1D 80 
28 40 00 80 44 40 00 80 
3D 40 18 90 4A 47 24 80 
49 40 2E 90 4C 45 16 80 
4A 40 2C 80 4C 40 01 90 
4A 4C 01 90 49 42 00 90 
45 38 3E 80 49 40 00 80 
45 40 0C 90 4C 4D 07 90 
47 45 00 90 44 3A 00 90 
49 3A 10 80 4A 40 2E 90 
4E 50 02 90 45 3C 00 90 
42 33 0F 80 47 40 00 80 
44 40 00 80 49 40 10 80 
4C 40 18 80 45 40 00 80 
42 40 13 90 44 43 00 90 
40 38 02 90 50 4D 16 80 
4E 40 22 80 44 40 00 80 
40 40 0E 90 50 4F 3E 80 
50 40 10 90 51 4E 0D 90 
3E 43 00 90 49 38 00 90 
4E 38 01 90 4A 46 29 80 
4A 40 01 80 3E 40 00 80 
49 40 00 80 4E 40 0C B0 
40 00 10 90 53 50 25 80 
51 40 21 90 40 42 02 90 
34 40 00 90 49 36 00 90 
50 36 09 90 55 4E 17 B0 
40 7F 0E 80 53 40 27 90 
53 4A 12 80 55 40 41 90 
55 4A 17 80 53 40 05 80 
40 40 01 80 34 40 00 80 
49 40 00 80 50 40 28 90 
56 4E 24 80 55 40 23 90 
58 4A 1B 80 56 40 2B 90 
56 4E 02 80 58 40 05 90 
55 42 00 90 51 38 41 80 
55 40 00 80 51 40 02 90 
58 4E 09 90 53 45 00 90 
50 3A 0B 80 56 40 2D 90 
5A 52 0A 90 51 34 00 90 
4E 2C 00 90 55 2C 19 80 
53 40 00 80 50 40 02 80 
58 40 18 80 51 40 00 80 
4E 40 00 80 55 40 11 90 
50 47 00 90 4C 3C 06 90 
5C 4E 0B 80 5A 40 15 80 
5C 40 0B 80 50 40 00 80 
4C 40 7A 90 45 51 00 90 
3F 4C 01 90 49 50 03 90 
36 4A 0B B0 40 00 14 80 
45 40 00 80 3F 40 12 80 
49 40 00 80 36 40 74 90 
49 4B 00 90 44 4F 00 90 
3F 4B 07 90 38 4A 15 B0 
40 7F 1A 80 44 40 00 80 
3F 40 08 80 38 40 0B 80 
49 40 62 90 2C 47 03 90 
33 40 28 80 33 40 01 B0 
40 00 03 80 2C 40 76 90 
47 49 00 90 44 4D 00 90 
3F 49 21 B0 40 7F 5E 80 
44 40 00 80 3F 40 28 80 
47 40 11 90 33 4C 03 90 
2C 44 21 B0 40 00 0D 80 
33 40 01 80 2C 40 78 90 
44 4E 00 90 41 4A 00 90 
49 4D 81 33 90 2C 4F 01 
90 25 4B 22 80 2C 40 05 
80 25 40 81 19 90 38 4F 
02 90 31 49 01 B0 40 7F 
0A 80 44 40 00 80 41 40 
15 80 38 40 04 80 49 40 
04 80 31 40 81 19 B0 40 
00 02 90 31 50 01 90 30 
37 05 90 2D 31 00 90 2A 
2E 45 B0 40 7F 2B 80 30 
40 0B 80 2D 40 00 80 2A 
40 29 90 28 3F 00 90 2C 
37 06 B0 40 00 0A 80 31 
40 20 80 2C 40 02 80 28 
40 6D 90 31 3D 04 90 2A 
23 00 90 27 21 00 90 2D 
2D 14 B0 40 7F 2C 80 2D 
40 16 80 2A 40 00 80 27 
40 52 90 2C 2D 07 90 28 
37 00 90 25 34 05 80 31 
40 81 0D 80 28 40 00 80 
25 40 06 80 2C 40 06 90 
34 41 81 0F B0 40 00 0F 
90 2A 37 04 90 2D 30 44 
90 33 3C 00 80 34 40 12 
80 2A 40 05 80 2D 40 0A 
90 31 2C 33 90 34 39 14 
80 33 40 07 80 31 40 0B 
90 2F 36 1F 90 36 40 00 
90 33 30 25 80 34 40 19 
80 2F 40 10 90 38 3F 00 
90 34 2F 01 90 2F 2D 00 
90 28 2A 0F 80 36 40 00 
80 33 40 36 90 36 39 00 
90 33 2A 05 80 38 40 00 
80 34 40 2C B0 40 7F 1E 
90 38 3F 00 90 34 2F 10 
80 36 40 00 80 33 40 31 
90 39 44 00 90 36 33 27 
80 38 40 00 80 34 40 1D 
80 2F 40 00 80 28 40 0A 
B0 40 00 0C 90 3B 46 00 
90 34 34 09 90 2C 43 05 
80 39 40 00 80 36 40 17 
80 3B 40 00 80 34 40 05 
80 2C 40 7E 90 34 3A 04 
90 31 36 00 90 2A 33 07 
90 2D 35 1E 80 31 40 00 
80 2A 40 06 80 34 40 02 
80 2D 40 81 06 90 2F 32 
00 90 34 35 04 90 2F 33 
00 90 2A 30 03 B0 40 7F 
81 0B 80 2A 40 22 80 34 
40 08 80 2F 40 01 90 33 
26 2F 80 33 40 81 01 90 
23 18 1A B0 40 00 41 90 
33 28 00 90 33 20 50 90 
2F 21 03 90 38 26 18 B0 
40 7F 18 80 23 40 1A 90 
3B 34 0A 80 2F 40 09 80 
38 40 32 80 3B 40 00 80 
33 40 0E 90 3F 25 09 90 
25 26 00 90 34 22 11 B0 
40 00 3D 90 3D 32 08 80 
3F 40 0C B0 40 7F 3B 80 
3D 40 01 90 3B 2A 19 80 
25 40 00 80 34 40 21 80 
3B 40 0B 90 3A 33 1D 80 
3A 40 0F B0 40 00 34 90 
31 21 03 90 3A 2E 01 90 
28 1E 00 90 38 1B 28 B0 
40 7F 2B 80 31 40 0D 80 
28 40 00 80 38 40 4C 80 
3A 40 10 90 3B 23 43 90 
3D 24 1E 80 3B 40 05 B0 
40 00 27 80 3D 40 11 90 
2E 1D 00 90 36 1A 04 90 
3F 2D 05 90 27 1D 32 80 
2E 40 00 80 36 40 04 80 
27 40 22 B0 40 7F 3B 80 
3F 40 22 90 3A 22 07 90 
33 1F 6B 80 3A 40 46 90 
42 2F 0C 80 33 40 20 80 
42 40 6B B0 40 00 10 90 
47 1D 01 90 3D 20 01 90 
50 21 00 90 4C 1F 06 90 
57 23 81 16 80 57 40 14 
90 3F 22 00 90 49 1E 04 
80 50 40 00 80 4C 40 01 
90 4B 21 04 90 46 1B 00 
90 42 19 05 80 47 40 0C 
80 3D 40 14 80 3F 40 00 
80 49 40 06 80 46 40 00 
80 42 40 01 80 4B 40 7F 
B0 40 7F 08 90 3A 1B 05 
90 33 1E 77 80 3A 40 36 
90 42 1E 1A 80 33 40 1C 
80 42 40 75 90 50 20 00 
90 4C 1E 03 B0 40 00 02 
90 47 1D 07 90 57 23 02 
90 3D 1B 81 10 80 57 40 
0F 80 50 40 00 80 4C 40 
03 80 47 40 01 90 3F 26 
00 90 49 22 05 90 4B 20 
05 90 46 18 00 90 42 16 
0A 80 3D 40 07 80 3F 40 
00 80 49 40 0A 80 4B 40 
01 80 46 40 00 80 42 40 
81 13 90 3A 1A 07 90 33 
1B 04 B0 40 7F 81 21 80 
3A 40 0D 90 42 1A 29 80 
33 40 0B 80 42 40 64 B0 
40 00 13 90 50 21 00 90 
4C 1F 0B 90 47 13 01 90 
57 22 01 90 3D 18 81 14 
80 57 40 03 B0 40 7F 0B 
80 50 40 00 80 4C 40 00 
80 47 40 04 90 3F 20 00 
90 49 1C 09 90 4B 1C 02 
90 46 16 00 90 42 14 0A 
80 3D 40 0A 80 3F 40 00 
80 49 40 0A 80 46 40 00 
80 42 40 02 80 4B 40 1C 
B0 40 00 79 90 2E 18 09 
90 27 1A 34 B0 40 7F 66 
80 2E 40 02 80 27 40 81 
34 B0 40 00 1F 90 2E 1A 
01 90 27 1D 2C B0 40 7F 
53 80 27 40 03 80 2E 40 
81 41 B0 40 00 1F 90 33 
55 01 90 32 3D 03 90 2F 
34 00 90 2C 31 33 B0 40 
7F 2B 80 32 40 0C 80 2F 
40 00 80 2C 40 20 B0 40 
00 14 90 2A 3D 02 90 2E 
35 0E 80 33 40 1C 80 2A 
40 04 80 2E 40 72 B0 40 
7F 05 90 33 50 01 90 2F 
3C 02 90 2C 2F 00 90 29 
2C 15 B0 40 00 18 B0 40 
7F 2B 80 2F 40 11 80 2C 
40 00 80 29 40 3E 90 2E 
3C 05 90 2A 44 00 90 27 
40 15 80 33 40 19 B0 40 
00 77 90 36 4C 0F B0 40 
7F 3B 80 2E 40 03 80 2A 
40 00 80 27 40 5F 90 2C 
42 07 90 2F 38 38 80 36 
40 03 90 35 46 11 80 2C 
40 04 80 2F 40 09 90 33 
2F 31 90 36 44 15 90 31 
44 00 80 35 40 05 80 33 
40 2E 90 38 4C 00 90 35 
39 1D B0 40 00 05 80 31 
40 02 80 36 40 23 90 31 
3E 00 90 2A 3A 06 90 3A 
4C 00 90 36 39 17 80 38 
40 00 80 35 40 2F 90 38 
4A 00 90 35 37 0D 80 3A 
40 00 80 36 40 30 B0 40 
7F 13 90 3A 4A 00 90 36 
37 1B 80 38 40 00 80 35 
40 26 90 3B 50 00 90 38 
3C 26 80 3A 40 00 80 36 
40 11 80 31 40 00 80 2A 
40 15 90 3D 4C 00 90 36 
39 0C 90 2E 4A 09 80 3B 
40 00 80 38 40 10 B0 40 
00 09 80 3D 40 00 80 36 
40 02 80 2E 40 7A 90 36 
4A 02 90 2F 3C 03 90 33 
45 00 90 2C 41 1D 80 33 
40 00 80 2C 40 11 80 36 
40 01 80 2F 40 79 90 31 
3B 02 90 36 41 04 90 31 
43 00 90 2C 3F 13 B0 40 
7F 81 25 80 36 40 04 90 
35 42 02 80 2C 40 19 80 
31 40 1C 80 35 40 6E 90 
25 30 3C B0 40 00 11 90 
35 33 00 90 35 33 50 90 
31 24 04 90 3A 2C 3D 80 
25 40 05 90 3D 34 21 80 
3A 40 17 80 31 40 13 80 
3D 40 00 80 35 40 04 90 
27 28 00 90 36 23 01 90 
41 30 1F B0 40 7F 37 90 
3F 37 02 80 41 40 38 80 
27 40 00 80 36 40 15 80 
3F 40 02 90 3D 2C 39 80 
3D 40 13 90 3C 25 1B 80 
3C 40 01 B0 40 00 39 90 
3C 2F 03 90 2A 29 00 90 
3A 24 00 90 33 22 43 80 
33 40 00 80 2A 40 00 80 
3A 40 17 B0 40 7F 5A 80 
3C 40 08 90 3D 24 4E 90 
3F 27 10 B0 40 00 05 80 
3D 40 36 90 30 18 02 80 
3F 40 03 90 29 1A 00 90 
38 16 0E 90 41 22 32 80 
30 40 00 80 29 40 00 80 
38 40 0B B0 40 7F 76 90 
3C 1B 06 90 35 1C 4B 80 
3C 40 5B 90 44 1D 1C 80 
35 40 02 80 41 40 1F 80 
44 40 5B B0 40 00 12 90 
49 18 05 90 52 1D 00 90 
4E 1B 03 90 3F 1B 01 90 
59 1F 81 21 80 49 40 05 
90 41 20 00 90 4B 1C 01 
80 59 40 03 80 52 40 00 
80 4E 40 06 90 4D 1F 05 
90 48 1D 00 90 44 1B 12 
80 3F 40 0D 80 4D 40 06 
80 41 40 00 80 4B 40 05 
80 48 40 00 80 44 40 81 
01 B0 40 7F 05 90 3C 1E 
08 90 35 20 35 80 3C 40 
16 80 35 40 5B 90 44 28 
21 80 44 40 81 10 90 52 
23 00 90 4E 21 02 90 49 
1A 01 90 59 28 01 B0 40 
00 07 90 3F 1D 81 1B 80 
59 40 07 90 41 1F 00 90 
4B 1B 06 90 48 25 00 90 
44 23 04 90 4D 28 08 80 
49 40 04 80 52 40 00 80 
4E 40 06 80 3F 40 0C 80 
41 40 00 80 4B 40 05 80 
48 40 00 80 44 40 05 80 
4D 40 81 03 90 3C 21 06 
90 35 24 2F B0 40 7F 7D 
90 44 26 1D 80 3C 40 02 
80 35 40 1C 80 44 40 78 
90 52 1F 00 90 4E 1D 09 
90 59 24 03 90 49 18 01 
90 3F 1B 81 0C 80 59 40 
0C 80 49 40 0C 90 48 1D 
00 90 44 1B 02 90 41 23 
00 90 4B 1F 03 90 4D 22 
02 80 52 40 00 80 4E 40 
02 B0 40 00 0F 80 3F 40 
08 80 41 40 00 80 4B 40 
09 80 4D 40 09 80 48 40 
00 80 44 40 81 04 B0 40 
7F 05 90 30 18 09 90 29 
18 81 09 80 30 40 0D 80 
29 40 81 51 90 30 19 03 
90 29 1C 5B 80 30 40 1C 
80 29 40 81 3F B0 40 00 
1F 90 35 5A 02 90 34 3C 
00 90 31 3E 00 90 2E 3A 
7B 80 34 40 03 B0 40 7F 
07 80 31 40 00 80 2E 40 
16 B0 40 00 0C 90 2C 3C 
01 90 30 3D 1A 80 35 40 
0C 80 2C 40 06 80 30 40 
79 90 35 4C 03 90 31 3F 
03 90 2E 34 00 90 2A 2F 
41 B0 40 7F 19 80 31 40 
13 80 2E 40 00 80 2A 40 
34 90 30 3C 05 90 2C 44 
00 90 29 3E 17 80 35 40 
5C B0 40 00 2B 90 38 4C 
2A 80 30 40 0A 80 2C 40 
00 80 29 40 1E B0 40 7F 
50 90 2E 3E 01 90 31 37 
14 B0 40 00 2E 80 38 40 
00 90 36 47 1E 90 35 34 
01 80 2E 40 05 80 31 40 
0E B0 40 7F 1A 90 38 46 
15 80 36 40 03 80 35 40 
00 90 33 40 00 90 2E 39 
2A 90 3A 4A 04 B0 40 00 
1F 80 38 40 01 80 33 40 
00 80 2E 40 2B 90 3B 4D 
00 90 35 45 03 90 2C 44 
00 90 31 3D 15 80 3A 40 
35 90 3A 49 0C 80 3B 40 
3F 90 3B 4B 1D 80 3A 40 
25 90 3D 51 2E 80 3B 40 
18 90 3F 4B 02 B0 40 7F 
14 80 3D 40 42 80 2C 40 
4C 90 2D 37 01 90 3B 50 
00 90 35 48 02 80 3F 40 
2C 80 2D 40 00 80 31 40 
01 80 3B 40 00 80 35 40 
70 90 2E 44 00 90 32 3D 
06 90 3B 4B 00 90 3A 43 
3A 80 2E 40 02 80 3B 40 
05 B0 40 00 01 90 3A 4C 
10 90 2C 3C 39 80 2C 40 
04 90 3F 4D 01 90 2A 42 
3A 90 29 39 02 B0 40 7F 
08 90 41 4C 01 80 2A 40 
06 B0 40 00 1A 80 3F 40 
0D 80 29 40 00 80 32 40 
1F 90 42 4A 00 90 3A 42 
0A 90 33 42 08 90 27 2C 
08 80 41 40 24 90 41 44 
02 B0 40 7F 0B 80 42 40 
02 80 27 40 01 80 33 40 
45 90 42 4B 18 80 41 40 
33 90 44 51 1B 90 31 3C 
01 90 25 39 03 80 42 40 
0D B0 40 00 0B 80 25 40 
02 80 31 40 1E 90 46 4A 
00 90 3A 42 00 90 3F 44 
03 80 44 40 10 90 30 3A 
06 90 24 3E 5A B0 40 7F 
1D 80 30 40 0F 80 24 40 
0F 90 42 4B 00 90 38 43 
03 80 46 40 00 80 3A 40 
2E 80 42 40 00 80 3F 40 
5E B0 40 00 18 90 42 4E 
00 90 3D 47 04 90 31 3A 
00 90 25 39 2E 80 42 40 
41 B0 40 7F 37 90 49 42 
01 90 41 3E 45 90 4B 47 
13 80 41 40 2E 80 49 40 
07 90 4D 40 10 80 25 40 
00 80 4B 40 00 80 38 40 
00 80 3D 40 04 80 31 40 
42 90 4B 44 15 80 4D 40 
2F 90 4D 42 01 80 4B 40 
2A B0 40 00 22 90 4E 40 
00 90 33 39 03 90 27 34 
0F 80 4D 40 09 80 33 40 
06 80 27 40 30 90 50 3E 
00 90 44 37 00 90 49 39 
01 90 35 28 01 90 29 2C 
02 80 4E 40 1E B0 40 7F 
58 80 35 40 08 80 29 40 
2C 90 47 44 00 90 3D 3D 
00 90 43 3E 03 80 50 40 
00 80 44 40 00 80 49 40 
81 2A 90 34 24 81 04 80 
34 40 25 80 3D 40 00 80 
43 40 00 90 46 2C 00 90 
42 28 0B 80 47 40 79 B0 
40 00 34 90 21 22 04 90 
2D 23 35 80 46 40 00 80 
42 40 10 90 31 30 00 90 
31 2C 09 B0 40 7F 01 80 
2D 40 00 80 21 40 51 90 
36 29 00 90 45 26 49 90 
39 40 12 B0 40 00 30 90 
2F 2F 00 80 36 40 07 90 
23 25 07 90 3D 3D 00 90 
32 36 00 90 39 38 0F 80 
45 40 00 80 31 40 2B B0 
40 7F 18 90 3B 4A 12 80 
23 40 0C 80 3D 40 01 80 
2F 40 2D 90 39 4A 1E 80 
3B 40 35 90 38 51 1C B0 
40 00 16 80 38 40 00 80 
32 40 00 80 39 40 1E 90 
38 49 00 90 36 43 07 90 
32 42 00 90 26 40 21 B0 
40 7F 0E B0 40 00 27 80 
32 40 04 B0 40 7F 06 80 
26 40 4B 90 39 42 11 80 
38 40 3A 90 3B 50 16 B0 
40 00 04 80 39 40 1F 80 
3B 40 00 80 36 40 17 90 
3D 4E 00 90 34 46 03 90 
31 47 02 90 25 3E 2A B0 
40 7F 06 80 31 40 02 80 
3D 40 00 80 34 40 04 80 
25 40 6F 90 56 58 05 90 
51 3E 00 90 55 41 2E 80 
55 40 1B 80 51 40 5C 90 
50 3B 02 90 53 42 0D 80 
56 40 1F 80 50 40 00 80 
53 40 4F B0 40 00 24 90 
56 55 05 90 51 44 01 90 
4E 37 19 B0 40 7F 25 80 
51 40 11 80 4E 40 4F 90 
50 38 06 80 56 40 03 90 
4C 38 2A 80 4C 40 01 80 
50 40 14 90 56 4C 43 80 
56 40 11 90 4E 49 00 90 
4A 41 01 90 55 47 0C 90 
42 3F 00 90 39 3B 00 90 
3E 3B 03 90 45 3B 25 80 
45 40 06 80 42 40 00 80 
39 40 00 80 3E 40 11 90 
53 47 01 80 4E 40 00 80 
4A 40 04 B0 40 00 0F 80 
55 40 42 90 31 42 01 90 
4C 4C 00 90 44 48 03 90 
25 3F 01 90 55 4E 06 80 
53 40 09 B0 40 7F 26 80 
31 40 06 80 25 40 02 80 
4C 40 00 80 44 40 0F 80 
55 40 63 90 55 50 03 90 
50 39 01 90 53 40 2B 80 
53 40 0F 80 50 40 6C 90 
4E 36 01 90 51 2E 07 80 
55 40 28 80 4E 40 04 80 
51 40 75 90 50 3A 00 90 
4C 2F 01 90 55 4F 34 80 
50 40 13 80 4C 40 51 90 
4E 38 09 90 4A 3A 00 80 
55 40 2A 80 4E 40 02 80 
4A 40 1E 90 55 4A 3D 80 
55 40 11 90 4C 46 00 90 
49 42 06 90 53 44 07 90 
40 3C 00 90 38 39 00 90 
3D 39 02 90 44 3B 24 80 
44 40 07 80 40 40 00 80 
38 40 00 80 3D 40 07 B0 
40 00 07 90 51 46 07 80 
4C 40 00 80 49 40 0A 80 
53 40 47 90 31 3E 00 90 
25 3D 04 90 4A 4A 00 90 
42 46 01 90 53 48 06 B0 
40 7F 01 80 51 40 1B B0 
40 00 0E 80 31 40 04 80 
4A 40 00 80 42 40 02 80 
25 40 04 B0 40 7F 0D 80 
53 40 6B 90 53 4D 07 90 
4E 40 00 90 51 3C 23 80 
4E 40 12 80 51 40 6C 90 
4C 37 06 90 50 39 13 80 
53 40 15 80 50 40 01 80 
4C 40 70 90 4E 3A 02 90 
4A 2F 01 90 53 48 27 80 
4E 40 0B 80 4A 40 63 80 
53 40 0B 90 4C 31 0A 90 
49 2C 24 80 4C 40 08 80 
49 40 23 90 53 3F 37 80 
53 40 10 90 4A 35 00 90 
47 32 09 90 42 25 00 90 
3E 27 00 90 36 25 00 90 
3B 25 04 90 51 2E 1B 80 
3E 40 00 80 36 40 00 80 
3B 40 02 80 42 40 10 80 
4A 40 00 80 47 40 0C 80 
51 40 03 90 50 3E 32 B0 
40 00 1D 80 50 40 05 90 
31 33 03 90 49 36 00 90 
40 30 02 90 25 2C 02 90 
51 3C 1E 80 31 40 01 80 
25 40 19 80 49 40 00 80 
40 40 0F 90 50 2F 08 80 
51 40 2B B0 40 7F 0F 90 
3E 27 00 90 3E 27 04 90 
49 20 12 90 4E 35 19 80 
50 40 28 80 4E 40 05 90 
4C 35 37 80 4C 40 17 90 
4E 2F 16 80 49 40 3B 90 
4C 3A 07 80 4E 40 3E 90 
4A 29 00 90 47 25 05 80 
4C 40 34 90 49 34 00 90 
45 2F 01 80 4A 40 00 80 
47 40 23 80 49 40 00 80 
45 40 08 90 47 26 06 B0 
40 00 0F 90 49 41 13 80 
47 40 04 90 44 21 04 90 
42 21 0C 90 47 38 13 80 
49 40 51 B0 40 7F 20 80 
42 40 00 80 3E 40 0C 80 
47 40 0B 80 44 40 07 90 
45 2E 40 80 45 40 0F 90 
47 26 24 B0 40 00 15 80 
47 40 21 90 31 1E 00 90 
25 1C 01 90 49 28 00 90 
40 24 3A 80 31 40 00 80 
25 40 03 80 49 40 00 80 
40 40 13 B0 40 7F 60 90 
56 2D 01 90 50 1D 0D 90 
55 17 25 80 50 40 00 80 
55 40 0A 80 56 40 0F 90 
51 28 39 80 51 40 0E 90 
4E 28 08 90 4A 25 01 90 
53 22 2F 80 4E 40 03 80 
53 40 06 80 4A 40 0F 90 
45 2E 41 80 45 40 04 90 
45 3D 0F 90 44 20 04 90 
49 24 22 80 49 40 0A 80 
44 40 0C 90 4A 30 06 80 
45 40 33 80 4A 40 0F 90 
51 39 13 90 42 28 02 90 
47 20 20 80 47 40 05 80 
42 40 01 80 51 40 0E 90 
56 35 4B 80 56 40 13 90 
4E 2B 00 90 4A 28 05 90 
55 2E 08 90 45 24 00 90 
39 22 05 90 3E 20 00 90 
42 1D 22 80 4E 40 00 80 
4A 40 01 80 45 40 00 80 
39 40 02 80 3E 40 00 80 
42 40 0C B0 40 00 06 80 
55 40 06 90 53 2C 4E 80 
53 40 0D 90 31 23 00 90 
25 21 03 90 4C 2E 00 90 
44 2B 08 90 55 27 33 80 
31 40 00 80 25 40 03 B0 
40 7F 0F 80 4C 40 00 80 
44 40 10 80 55 40 50 90 
55 32 09 90 53 2B 09 90 
4E 21 24 80 53 40 0D 80 
4E 40 0D 90 50 31 06 80 
55 40 38 80 50 40 0B 90 
49 32 04 90 4C 2B 02 90 
51 23 34 80 4C 40 05 80 
51 40 0A 80 49 40 05 90 
44 34 4C 90 44 40 07 90 
42 30 02 90 47 2D 23 80 
47 40 0C 80 42 40 16 90 
49 35 14 80 44 40 2F 80 
49 40 07 90 50 43 0C 90 
45 33 01 90 40 35 29 80 
45 40 07 80 40 40 05 80 
50 40 08 90 55 46 42 B0 
40 00 0E 80 55 40 05 90 
4C 42 00 90 49 3E 01 90 
53 48 0F 90 44 39 00 90 
38 36 02 90 3D 32 00 90 
40 2E 23 80 44 40 00 80 
38 40 03 80 3D 40 00 80 
40 40 10 80 4C 40 00 80 
49 40 06 90 51 47 0D B0 
40 7F 02 80 53 40 16 B0 
40 00 14 B0 40 7F 16 80 
51 40 04 90 4A 40 00 90 
42 3C 01 90 31 40 00 90 
25 3C 0A 90 53 28 29 80 
53 40 01 80 31 40 00 80 
25 40 08 80 4A 40 00 80 
42 40 73 90 4C 2C 01 90 
51 2E 08 90 53 2A 0A 90 
4E 25 12 80 4E 40 04 80 
4C 40 0D 80 51 40 1B 90 
47 2C 0A 80 53 40 3B 90 
4A 2B 04 90 50 2E 03 80 
47 40 06 90 42 42 2C 80 
50 40 06 80 4A 40 1C 80 
42 40 01 90 42 3E 43 90 
45 2E 02 90 40 25 10 90 
47 3B 0E 80 45 40 05 80 
42 40 02 80 40 40 4F 80 
47 40 1F 90 4E 40 10 90 
44 20 16 80 44 40 21 80 
4E 40 01 90 53 47 54 80 
53 40 0C 90 51 49 55 90 
50 38 09 80 51 40 04 B0 
40 00 2F 80 50 40 17 90 
31 39 00 90 25 36 05 90 
49 46 00 90 40 42 03 90 
51 44 40 80 31 40 00 80 
25 40 09 80 51 40 02 90 
50 3F 01 B0 40 7F 08 80 
49 40 00 80 40 40 40 80 
50 40 0B 90 4E 3C 04 90 
49 3C 02 90 3E 3A 00 90 
3E 3A 4A 90 4C 48 03 80 
49 40 17 80 4E 40 31 90 
4E 42 15 80 4C 40 39 90 
4C 44 00 80 4E 40 39 80 
4C 40 0E 90 4A 40 00 90 
47 3A 47 90 49 47 00 90 
45 41 16 80 4A 40 00 80 
47 40 13 B0 40 00 0B 90 
47 40 09 80 49 40 00 80 
45 40 06 90 42 47 02 90 
44 46 0E 90 49 49 0C 80 
47 40 38 B0 40 7F 13 B0 
40 00 22 B0 40 7F 06 80 
44 40 0A 80 42 40 00 80 
3E 40 10 80 49 40 17 90 
45 42 45 90 47 42 0C 80 
45 40 17 B0 40 00 06 80 
47 40 29 90 40 3E 01 90 
3D 3E 07 90 49 45 00 90 
44 3F 2C 80 40 40 05 80 
49 40 00 80 44 40 04 80 
3D 40 6C 90 3D 49 09 90 
36 3E 00 90 39 37 07 90 
2D 2F 24 B0 40 7F 09 80 
36 40 00 80 39 40 0F 80 
2D 40 5E 90 32 27 04 90 
34 25 00 90 37 21 31 80 
3D 40 02 80 32 40 08 80 
34 40 00 80 37 40 06 90 
39 40 53 90 3B 47 03 90 
34 3A 00 90 37 34 06 90 
2D 31 04 80 39 40 23 80 
34 40 00 80 37 40 04 80 
2D 40 0F 90 3D 4B 0D 80 
3B 40 16 80 3D 40 1B B0 
40 00 18 90 25 3E 01 90 
2C 3C 00 90 34 34 00 90 
38 36 00 90 3D 57 2A 80 
2C 40 00 80 34 40 00 80 
38 40 03 80 25 40 07 80 
3D 40 64 B0 40 7F 08 90 
47 59 03 90 3E 49 00 90 
42 40 00 90 45 41 03 90 
32 43 40 80 3E 40 00 80 
42 40 00 80 45 40 04 80 
32 40 55 90 37 41 04 90 
3C 3D 00 90 40 35 00 90 
43 36 2E 80 47 40 04 80 
37 40 03 80 3C 40 00 80 
40 40 00 80 43 40 07 90 
43 47 54 90 45 4D 07 90 
3C 42 00 90 40 3A 00 90 
42 3B 06 90 32 39 07 80 
43 40 20 80 3C 40 00 80 
40 40 00 80 42 40 07 80 
32 40 14 90 47 50 0A 80 
45 40 1E 80 47 40 29 90 
36 43 00 90 3B 39 00 90 
3E 3A 00 90 42 3C 01 B0 
40 00 00 90 2F 40 07 90 
47 55 29 80 36 40 00 80 
3B 40 00 80 3E 40 00 80 
42 40 01 80 2F 40 0F 80 
47 40 64 90 3D 4B 02 90 
36 42 00 90 39 3B 04 90 
2D 3A 11 B0 40 7F 30 80 
36 40 00 80 39 40 08 80 
2D 40 52 90 34 48 00 90 
37 40 03 90 32 40 11 B0 
40 00 17 80 32 40 07 80 
34 40 00 80 37 40 03 80 
3D 40 13 90 39 4A 43 90 
3B 4A 0F 90 34 43 00 90 
37 3C 05 90 2D 3E 07 80 
39 40 33 80 34 40 00 80 
37 40 04 80 2D 40 01 B0 
40 7F 03 90 3D 53 14 80 
3B 40 18 80 3D 40 0A B0 
40 00 1E 90 2C 4C 00 90 
34 42 00 90 38 44 01 90 
25 4A 00 90 3D 54 32 80 
2C 40 00 80 34 40 00 80 
38 40 04 80 25 40 01 80 
3D 40 64 90 47 58 03 90 
3E 46 00 90 42 3D 00 90 
45 3F 03 90 32 44 51 80 
3E 40 00 80 42 40 00 80 
45 40 06 B0 40 7F 11 80 
32 40 32 90 3C 36 00 90 
40 2F 00 90 43 30 03 90 
37 32 28 80 47 40 07 80 
37 40 07 90 43 44 04 80 
3C 40 00 80 40 40 49 90 
45 44 0C 90 32 3D 07 80 
43 40 01 90 3C 2E 00 90 
40 28 00 90 42 29 35 90 
47 41 00 80 3C 40 00 80 
40 40 00 80 42 40 01 80 
32 40 12 B0 40 00 0B 80 
45 40 0B 80 47 40 2F 90 
36 31 00 90 3B 2A 00 90 
3E 2B 00 90 42 2C 01 90 
2F 37 01 90 47 3B 1C 80 
2F 40 03 80 36 40 00 80 
3B 40 00 80 3E 40 00 80 
42 40 0E 80 47 40 72 90 
23 27 00 90 17 23 01 90 
42 35 00 90 42 35 06 90 
3E 26 00 90 3B 22 0C B0 
40 7F 1E 80 3E 40 00 80 
3B 40 05 80 23 40 00 80 
17 40 20 90 25 37 00 90 
19 31 2F 80 25 40 00 80 
19 40 17 90 39 42 05 90 
3D 38 06 90 26 31 00 90 
1A 2C 33 80 39 40 05 80 
26 40 00 80 1A 40 06 80 
3D 40 00 80 42 40 01 90 
28 44 00 90 1C 3D 1D B0 
40 00 1F 80 28 40 00 80 
1C 40 12 90 2A 41 00 90 
1E 3A 07 90 42 43 00 90 
3E 3D 03 90 45 46 00 90 
45 46 1C B0 40 7F 1D 90 
2B 44 00 90 1F 3D 02 80 
2A 40 00 80 1E 40 01 80 
42 40 00 80 3E 40 3A 80 
2B 40 00 80 1F 40 01 B0 
40 00 08 90 2D 42 00 90 
21 3B 14 90 3D 4F 00 90 
40 48 34 80 2D 40 00 80 
21 40 04 90 2F 47 00 90 
23 3F 02 B0 40 7F 06 80 
3D 40 10 80 40 40 00 80 
45 40 2D B0 40 00 05 80 
2F 40 00 80 23 40 03 90 
31 47 00 90 25 3F 14 90 
45 47 00 90 42 41 01 90 
49 4C 00 90 49 4C 3B 90 
32 4D 00 90 26 45 02 80 
31 40 00 80 25 40 01 80 
45 40 00 80 42 40 0F B0 
40 7F 22 B0 40 00 20 90 
34 47 00 90 28 3F 00 80 
32 40 00 80 26 40 01 B0 
40 7F 05 90 43 4B 01 90 
40 51 34 B0 40 00 0A 80 
40 40 09 80 34 40 00 80 
28 40 01 90 36 4E 00 90 
2A 46 03 80 43 40 00 80 
49 40 44 90 37 4B 00 90 
2B 43 07 80 36 40 00 80 
2A 40 06 90 4A 4E 00 90 
47 47 01 90 4E 50 00 90 
4E 50 27 B0 40 7F 14 80 
4A 40 00 80 47 40 09 B0 
40 00 02 90 39 4F 00 90 
2D 47 07 80 37 40 00 80 
2B 40 39 80 39 40 00 80 
2D 40 08 90 3B 4B 00 90 
2F 43 07 90 49 4D 00 90 
45 54 05 B0 40 7F 18 B0 
40 00 20 80 45 40 0D 80 
49 40 00 80 4E 40 03 90 
3D 4D 00 90 31 45 03 80 
3B 40 00 80 2F 40 3D 80 
3D 40 00 80 31 40 09 90 
4E 4C 00 90 4E 4C 00 90 
4A 48 00 90 43 40 00 90 
47 42 06 90 3E 47 00 90 
32 3F 34 80 4A 40 00 80 
43 40 00 80 47 40 05 90 
40 48 00 90 34 40 0B 80 
3E 40 00 80 32 40 3A 80 
40 40 00 80 34 40 0A 90 
42 4B 00 90 36 43 22 90 
45 54 00 90 42 4D 01 90 
49 53 21 B0 40 7F 0B 80 
45 40 13 80 49 40 00 80 
4E 40 68 80 42 40 00 80 
36 40 02 90 51 5E 81 13 
B0 40 00 0E 90 3B 39 00 
90 45 30 00 90 4A 30 03 
90 2F 3F 41 B0 40 7F 08 
90 4F 44 02 80 3B 40 00 
80 45 40 00 80 4A 40 04 
80 2F 40 01 80 51 40 42 
80 4F 40 02 90 4E 47 02 
90 34 3C 0F 90 40 2E 00 
90 44 27 00 90 4A 27 2E 
80 34 40 01 80 40 40 00 
80 44 40 00 80 4A 40 06 
80 4E 40 07 90 4C 3A 44 
80 4C 40 0C 90 36 30 00 
90 45 28 00 90 49 28 00 
90 4E 46 00 90 2A 39 0F 
B0 40 00 1F 80 2A 40 09 
80 36 40 00 80 45 40 00 
80 49 40 17 80 4E 40 01 
90 4F 42 50 B0 40 7F 00 
90 51 42 08 90 41 30 00 
90 3E 2B 00 90 3B 2B 01 
90 42 34 00 90 42 34 13 
80 4F 40 20 80 41 40 00 
80 3E 40 00 80 3B 40 02 
90 53 33 2F 80 51 40 18 
90 55 43 0B 80 53 40 12 
90 39 33 02 90 3D 36 08 
B0 40 00 07 80 55 40 0B 
80 3D 40 00 80 42 40 09 
80 39 40 81 01 90 42 2F 
00 90 42 2F 03 90 55 37 
00 90 3E 23 00 90 3B 1F 
00 90 37 1F 13 B0 40 7F 
15 80 3E 40 00 80 3B 40 
00 80 37 40 7A 90 3D 24 
09 90 39 2A 00 90 36 25 
23 80 39 40 00 80 36 40 
00 80 3D 40 00 80 42 40 
07 80 55 40 22 90 51 31 
45 90 45 1F 06 90 4E 2F 
01 80 51 40 33 B0 40 00 
28 80 4E 40 02 90 49 26 
37 80 49 40 0C 90 4A 2D 
00 90 3E 21 00 90 3B 21 
43 80 45 40 19 90 44 2A 
36 80 44 40 15 90 42 23 
46 80 42 40 09 90 40 21 
46 80 40 40 04 90 42 2B 
02 80 4A 40 00 80 3E 40 
00 80 3B 40 52 90 4C 2C 
53 80 42 40 03 90 4E 25 
02 80 4C 40 01 90 44 1E 
4D 90 50 2F 0C 80 4E 40 
33 80 50 40 10 90 53 1F 
00 90 3E 17 00 90 34 17 
4C 80 53 40 06 90 50 2B 
3F 80 50 40 08 80 44 40 
04 90 4C 24 01 90 44 23 
3F 80 4C 40 10 90 47 2C 
52 80 47 40 00 80 3E 40 
00 80 34 40 04 90 49 28 
00 90 3D 1E 00 90 39 1E 
32 80 44 40 18 90 42 28 
15 B0 40 7F 2C 80 42 40 
13 90 40 2C 48 90 3E 28 
13 80 40 40 2A 90 40 3A 
04 80 3E 40 1C 80 49 40 
00 80 3D 40 00 80 39 40 
2F 90 4A 3E 4F 90 4C 3C 
01 B0 40 00 09 90 42 26 
05 80 4A 40 0E 80 40 40 
2F 90 4E 3F 24 80 4C 40 
2F 90 51 30 00 90 3D 24 
00 90 32 24 04 80 4E 40 
49 90 4E 3B 0F 80 51 40 
3F 80 4E 40 04 90 4A 2D 
02 80 42 40 0B 90 42 28 
25 80 4A 40 17 90 45 29 
60 90 47 2E 00 90 3B 22 
00 90 38 22 06 80 45 40 
00 80 3D 40 00 80 32 40 
1B 80 42 40 1C 90 40 24 
48 80 40 40 0C 90 3E 2C 
16 B0 40 7F 3A 90 3D 26 
02 80 3E 40 4A 90 3E 37 
01 80 3D 40 24 80 47 40 
00 80 3B 40 00 80 38 40 
21 90 49 3B 02 80 3E 40 
3D 80 49 40 10 90 4A 42 
00 90 42 38 00 90 47 38 
06 90 44 3F 02 90 38 37 
2E 80 44 40 04 80 38 40 
0F 90 4C 47 17 B0 40 00 
10 80 4A 40 2E 90 4E 47 
00 90 42 3C 00 90 49 3C 
04 90 39 3E 01 90 2D 39 
17 80 4C 40 00 80 47 40 
2D 90 4C 46 05 B0 40 7F 
05 80 4E 40 00 80 42 40 
00 80 49 40 4C 90 4E 46 
1B 80 4C 40 09 80 39 40 
25 90 50 4C 03 80 2D 40 
20 80 4E 40 2D 90 51 49 
1A 80 50 40 1D 90 4E 44 
00 90 4A 3D 08 90 50 4D 
00 90 50 41 03 80 51 40 
3B 80 4E 40 00 80 4A 40 
0F 90 51 4D 00 90 4C 46 
00 90 49 3F 43 90 4A 37 
00 90 47 31 03 90 53 51 
00 90 4E 44 0D 80 4C 40 
00 80 49 40 17 80 51 40 
00 80 50 40 14 80 4A 40 
00 80 47 40 10 90 49 43 
00 90 45 3C 0B 90 55 4F 
16 80 53 40 18 80 49 40 
00 80 45 40 15 90 55 4F 
10 80 4E 40 43 90 44 47 
01 90 56 50 00 90 4E 44 
00 90 53 44 00 90 50 48 
17 80 55 40 10 80 50 40 
0E 80 44 40 18 90 58 4C 
16 B0 40 00 13 80 56 40 
2C 90 39 47 02 90 5A 4A 
00 90 4E 3E 00 90 55 3E 
01 90 45 47 22 80 58 40 
00 80 53 40 29 90 58 49 
15 80 5A 40 00 80 4E 40 
00 80 55 40 02 B0 40 7F 
45 90 5A 4B 1D 80 58 40 
2F 90 5C 4B 09 80 45 40 
0A 80 39 40 19 80 5A 40 
27 90 5D 4A 20 80 5C 40 
25 90 5C 50 00 90 5C 44 
04 90 5A 49 00 90 56 41 
0C 80 5D 40 3C 80 5A 40 
00 80 56 40 0F 90 5D 50 
05 90 58 50 00 90 55 48 
48 90 5F 55 00 90 5A 48 
02 90 56 42 00 90 53 3B 
16 80 58 40 00 80 55 40 
05 80 5D 40 00 80 5C 40 
1D 80 56 40 00 80 53 40 
09 80 5F 40 0E 90 55 4B 
00 90 51 43 07 90 61 4A 
20 80 61 40 00 80 5A 40 
09 80 55 40 00 80 51 40 
74 B0 40 00 22 90 4A 55 
00 90 44 4E 01 90 42 54 
01 90 4E 4B 02 90 3B 49 
03 90 2F 4D 43 80 42 40 
02 80 4E 40 04 80 4A 40 
00 80 44 40 00 80 2F 40 
00 80 3B 40 81 13 90 49 
57 00 90 44 50 03 90 42 
4F 00 90 4E 49 04 90 3D 
4A 02 90 38 4E 00 90 31 
46 12 B0 40 7F 27 80 42 
40 01 80 38 40 00 80 31 
40 08 80 4E 40 01 80 49 
40 00 80 44 40 01 80 3D 
40 81 1B 90 25 4D 03 90 
2C 4C 39 80 25 40 03 80 
2C 40 81 11 B0 40 00 1D 
90 49 52 00 90 44 4B 02 
90 4C 48 00 90 40 4B 02 
90 3D 4E 00 90 38 52 00 
90 31 49 27 B0 40 7F 3B 
80 38 40 00 80 31 40 03 
80 40 40 02 80 3D 40 06 
80 4C 40 07 80 49 40 00 
80 44 40 81 02 90 25 4A 
03 90 2C 46 2D 80 2C 40 
02 80 25 40 81 38 B0 40 
00 29 90 49 58 00 90 46 
50 02 90 42 4F 02 90 4E 
4A 00 90 3D 49 02 90 36 
4E 00 90 31 46 4E B0 40 
7F 19 80 42 40 03 80 49 
40 00 80 46 40 03 80 4E 
40 00 80 3D 40 01 80 36 
40 00 80 31 40 81 41 90 
1E 4F 01 90 25 4F 4D 80 
1E 40 08 80 25 40 82 30 
B0 40 00 28 90 2A 50 03 
90 31 51 30 B0 40 7F 0F 
80 2A 40 27 80 31 40 8A 
18 B0 40 00 87 68 FF 2F 
00 
